G04 #@! TF.FileFunction,Copper,L2,Bot,Signal*
%FSLAX46Y46*%
G04 Gerber Fmt 4.6, Leading zero omitted, Abs format (unit mm)*
G04 Created by KiCad (PCBNEW 4.0.6) date 06/11/18 13:09:49*
%MOMM*%
%LPD*%
G01*
G04 APERTURE LIST*
%ADD10C,0.150000*%
%ADD11R,1.524000X1.524000*%
%ADD12C,1.524000*%
%ADD13R,1.700000X1.700000*%
%ADD14O,1.700000X1.700000*%
%ADD15C,0.508000*%
%ADD16C,0.152000*%
%ADD17C,0.229000*%
%ADD18C,0.457200*%
%ADD19C,0.254000*%
G04 APERTURE END LIST*
D10*
D11*
X272310000Y-151070000D03*
D12*
X269770000Y-151070000D03*
D11*
X280070000Y-155920000D03*
D12*
X280070000Y-153380000D03*
D13*
X315300000Y-140550000D03*
D14*
X312760000Y-140550000D03*
X310220000Y-140550000D03*
X307680000Y-140550000D03*
X305140000Y-140550000D03*
X302600000Y-140550000D03*
X300060000Y-140550000D03*
X297520000Y-140550000D03*
D13*
X297540000Y-143440000D03*
D14*
X300080000Y-143440000D03*
X302620000Y-143440000D03*
X305160000Y-143440000D03*
X307700000Y-143440000D03*
X310240000Y-143440000D03*
X312780000Y-143440000D03*
X315320000Y-143440000D03*
D13*
X297170000Y-154230000D03*
D14*
X299710000Y-154230000D03*
X302250000Y-154230000D03*
X304790000Y-154230000D03*
X307330000Y-154230000D03*
X309870000Y-154230000D03*
X312410000Y-154230000D03*
X314950000Y-154230000D03*
D13*
X314930000Y-151340000D03*
D14*
X312390000Y-151340000D03*
X309850000Y-151340000D03*
X307310000Y-151340000D03*
X304770000Y-151340000D03*
X302230000Y-151340000D03*
X299690000Y-151340000D03*
X297150000Y-151340000D03*
D13*
X314880000Y-129690000D03*
D14*
X312340000Y-129690000D03*
X309800000Y-129690000D03*
X307260000Y-129690000D03*
X304720000Y-129690000D03*
X302180000Y-129690000D03*
X299640000Y-129690000D03*
X297100000Y-129690000D03*
D11*
X275750000Y-156260000D03*
D12*
X275750000Y-153720000D03*
D11*
X286770000Y-127175000D03*
D12*
X284230000Y-127175000D03*
D11*
X272310000Y-155160000D03*
D12*
X269770000Y-155160000D03*
D13*
X297120000Y-132580000D03*
D14*
X299660000Y-132580000D03*
X302200000Y-132580000D03*
X304740000Y-132580000D03*
X307280000Y-132580000D03*
X309820000Y-132580000D03*
X312360000Y-132580000D03*
X314900000Y-132580000D03*
D15*
X281450000Y-130860000D03*
X281475000Y-130075000D03*
X296120000Y-130860000D03*
X295640000Y-152660000D03*
X294970000Y-143300000D03*
X294600000Y-154090000D03*
X284640000Y-152640000D03*
X283870000Y-149150000D03*
X284260000Y-137710000D03*
X283010000Y-140040000D03*
X272700000Y-142670000D03*
X269180000Y-135355000D03*
X273125000Y-140250000D03*
X279110000Y-128530000D03*
X282570000Y-128270000D03*
X273150000Y-130150000D03*
X276820000Y-128420000D03*
X294550000Y-132440000D03*
X282720000Y-147050000D03*
X275110000Y-145160000D03*
X279100000Y-142125000D03*
X268100000Y-137300000D03*
X281655000Y-136780000D03*
X275120000Y-130980000D03*
X274640000Y-137010000D03*
X274580000Y-129450000D03*
X282425000Y-143750000D03*
X294100000Y-152170000D03*
X287760000Y-155630000D03*
X287540000Y-143850000D03*
X294810000Y-141770000D03*
X281615000Y-150045000D03*
X283200000Y-134520000D03*
X294390000Y-130910000D03*
X287120000Y-132990000D03*
X277900000Y-146880000D03*
X277790000Y-150420000D03*
X274410000Y-142180000D03*
X275760000Y-143480000D03*
X274000000Y-133625000D03*
X273800000Y-132875000D03*
X277310000Y-141530000D03*
X269570000Y-143820000D03*
X268050000Y-133325000D03*
X273850000Y-132100000D03*
X286610000Y-147690000D03*
X286430000Y-129910000D03*
X287370000Y-134070000D03*
X286050000Y-148220000D03*
X286760000Y-134370000D03*
X285700000Y-130310000D03*
X285500000Y-148820000D03*
X286080000Y-134660000D03*
X285580000Y-131590000D03*
X284930000Y-149370000D03*
X285400000Y-134970000D03*
X284940000Y-132690000D03*
X293840000Y-131490000D03*
X287970000Y-134600000D03*
X288690000Y-147690000D03*
X293840000Y-152920000D03*
X294210000Y-142580000D03*
X287780000Y-145070000D03*
D16*
X286770000Y-127175000D02*
X285715000Y-127175000D01*
X281480000Y-130860000D02*
X281450000Y-130860000D01*
X284010000Y-128330000D02*
X281480000Y-130860000D01*
X284560000Y-128330000D02*
X284010000Y-128330000D01*
X285715000Y-127175000D02*
X284560000Y-128330000D01*
X284230000Y-127175000D02*
X284230000Y-127320000D01*
X284230000Y-127320000D02*
X281475000Y-130075000D01*
D17*
X275750000Y-153720000D02*
X274610000Y-153720000D01*
X271920000Y-153220000D02*
X269770000Y-151070000D01*
X274110000Y-153220000D02*
X271920000Y-153220000D01*
X274610000Y-153720000D02*
X274110000Y-153220000D01*
D16*
X296100000Y-142170000D02*
X294970000Y-143300000D01*
X296100000Y-139620000D02*
X296100000Y-142170000D01*
X298260000Y-137460000D02*
X296100000Y-139620000D01*
X298260000Y-131350000D02*
X298260000Y-136590000D01*
X298260000Y-136590000D02*
X298260000Y-137460000D01*
X298080000Y-131170000D02*
X298260000Y-131350000D01*
X296430000Y-131170000D02*
X298080000Y-131170000D01*
X296120000Y-130860000D02*
X296430000Y-131170000D01*
X294970000Y-151990000D02*
X294970000Y-143300000D01*
X295640000Y-152660000D02*
X294970000Y-151990000D01*
X294600000Y-154090000D02*
X286090000Y-154090000D01*
X286090000Y-154090000D02*
X284640000Y-152640000D01*
X283010000Y-140040000D02*
X283010000Y-141420000D01*
X283010000Y-141420000D02*
X284380000Y-142790000D01*
X284380000Y-142790000D02*
X284380000Y-148640000D01*
X284380000Y-148640000D02*
X283870000Y-149150000D01*
X284260000Y-137710000D02*
X284260000Y-138790000D01*
X284260000Y-138790000D02*
X283010000Y-140040000D01*
D18*
X283010000Y-140040000D02*
X283020000Y-140040000D01*
X268875000Y-140250000D02*
X273125000Y-140250000D01*
X267400000Y-138775000D02*
X268875000Y-140250000D01*
X267400000Y-136625000D02*
X267400000Y-138775000D01*
X268125000Y-135900000D02*
X267400000Y-136625000D01*
X268635000Y-135900000D02*
X268125000Y-135900000D01*
X269180000Y-135355000D02*
X268635000Y-135900000D01*
D16*
X279110000Y-128530000D02*
X282310000Y-128530000D01*
X282310000Y-128530000D02*
X282570000Y-128270000D01*
X273150000Y-130150000D02*
X273150000Y-130090000D01*
X274820000Y-128420000D02*
X276820000Y-128420000D01*
X273150000Y-130090000D02*
X274820000Y-128420000D01*
X276810000Y-128430000D02*
X276800000Y-128430000D01*
X276820000Y-128420000D02*
X276810000Y-128430000D01*
X280070000Y-149120000D02*
X280070000Y-153380000D01*
X282060000Y-147130000D02*
X280070000Y-149120000D01*
X282640000Y-147130000D02*
X282060000Y-147130000D01*
X282720000Y-147050000D02*
X282640000Y-147130000D01*
D18*
X275110000Y-145160000D02*
X273010000Y-145160000D01*
X272310000Y-145860000D02*
X272310000Y-151070000D01*
X273010000Y-145160000D02*
X272310000Y-145860000D01*
D16*
X279100000Y-142125000D02*
X279100000Y-142180000D01*
X276120000Y-145160000D02*
X275110000Y-145160000D01*
X279100000Y-142180000D02*
X276120000Y-145160000D01*
D18*
X274640000Y-137010000D02*
X274810000Y-137010000D01*
X279100000Y-141300000D02*
X279100000Y-142125000D01*
X274810000Y-137010000D02*
X279100000Y-141300000D01*
D16*
X279100000Y-142125000D02*
X280725000Y-143750000D01*
D18*
X274640000Y-137010000D02*
X268390000Y-137010000D01*
X268390000Y-137010000D02*
X268100000Y-137300000D01*
X281655000Y-136780000D02*
X281425000Y-137010000D01*
X281425000Y-137010000D02*
X274640000Y-137010000D01*
X275120000Y-130980000D02*
X275120000Y-136450000D01*
X275120000Y-136450000D02*
X274640000Y-137010000D01*
X275120000Y-129990000D02*
X275120000Y-130980000D01*
X274580000Y-129450000D02*
X275120000Y-129990000D01*
D16*
X280725000Y-143750000D02*
X282425000Y-143750000D01*
X294390000Y-130910000D02*
X295080000Y-130910000D01*
X295630000Y-140950000D02*
X294810000Y-141770000D01*
X295630000Y-131460000D02*
X295630000Y-140950000D01*
X295080000Y-130910000D02*
X295630000Y-131460000D01*
X283200000Y-134520000D02*
X283200000Y-138300000D01*
X283890000Y-144740000D02*
X283870000Y-144740000D01*
X283890000Y-143850000D02*
X283890000Y-144740000D01*
X282020000Y-141980000D02*
X283890000Y-143850000D01*
X282020000Y-139480000D02*
X282020000Y-141980000D01*
X283200000Y-138300000D02*
X282020000Y-139480000D01*
X287760000Y-155630000D02*
X285424000Y-155630000D01*
X281615000Y-151821000D02*
X281615000Y-150045000D01*
X285424000Y-155630000D02*
X281615000Y-151821000D01*
X287120000Y-132990000D02*
X287120000Y-129870000D01*
X284100000Y-133620000D02*
X283200000Y-134520000D01*
X284100000Y-133010000D02*
X284100000Y-133620000D01*
X284320000Y-132790000D02*
X284100000Y-133010000D01*
X284320000Y-131980000D02*
X284320000Y-132790000D01*
X285200000Y-131100000D02*
X284320000Y-131980000D01*
X285200000Y-130020000D02*
X285200000Y-131100000D01*
X285800000Y-129420000D02*
X285200000Y-130020000D01*
X286640000Y-129420000D02*
X285800000Y-129420000D01*
X286820000Y-129600000D02*
X286640000Y-129420000D01*
X286850000Y-129600000D02*
X286820000Y-129600000D01*
X287120000Y-129870000D02*
X286850000Y-129600000D01*
X294100000Y-152170000D02*
X295660000Y-153730000D01*
X295660000Y-153730000D02*
X295660000Y-154690000D01*
X295660000Y-154690000D02*
X294720000Y-155630000D01*
X294720000Y-155630000D02*
X287760000Y-155630000D01*
X294810000Y-141770000D02*
X294190000Y-141770000D01*
X294190000Y-141770000D02*
X293480000Y-141060000D01*
X293480000Y-141060000D02*
X290330000Y-141060000D01*
X290330000Y-141060000D02*
X287540000Y-143850000D01*
X283870000Y-147790000D02*
X281615000Y-150045000D01*
X283870000Y-147790000D02*
X283870000Y-144740000D01*
X294390000Y-130910000D02*
X293770000Y-130910000D01*
X289910000Y-130200000D02*
X289210000Y-130900000D01*
X293060000Y-130200000D02*
X289910000Y-130200000D01*
X293770000Y-130910000D02*
X293060000Y-130200000D01*
X289210000Y-130900000D02*
X287120000Y-132990000D01*
D17*
X277790000Y-150420000D02*
X277790000Y-154220000D01*
X277790000Y-154220000D02*
X275750000Y-156260000D01*
X277900000Y-146880000D02*
X277790000Y-146990000D01*
X277790000Y-146990000D02*
X277790000Y-150420000D01*
D16*
X274460000Y-142180000D02*
X274410000Y-142180000D01*
X275760000Y-143480000D02*
X274460000Y-142180000D01*
X273225000Y-134400000D02*
X268700000Y-134400000D01*
X274000000Y-133625000D02*
X273225000Y-134400000D01*
X272950000Y-133725000D02*
X268700000Y-133725000D01*
X273800000Y-132875000D02*
X272950000Y-133725000D01*
X277310000Y-143140000D02*
X277310000Y-141530000D01*
X275960000Y-144490000D02*
X277310000Y-143140000D01*
X270240000Y-144490000D02*
X275960000Y-144490000D01*
X269570000Y-143820000D02*
X270240000Y-144490000D01*
X268575000Y-132800000D02*
X268050000Y-133325000D01*
X273150000Y-132800000D02*
X268575000Y-132800000D01*
X273850000Y-132100000D02*
X273150000Y-132800000D01*
X287370000Y-134070000D02*
X287370000Y-142590000D01*
X286610000Y-143350000D02*
X286610000Y-147690000D01*
X286610000Y-147690000D02*
X286610000Y-147720000D01*
X287370000Y-142590000D02*
X286610000Y-143350000D01*
X286470000Y-129950000D02*
X286430000Y-129910000D01*
X286470000Y-129950000D02*
X286470000Y-133170000D01*
X286470000Y-133170000D02*
X287370000Y-134070000D01*
X286760000Y-134370000D02*
X286760000Y-142310000D01*
X286050000Y-143020000D02*
X286050000Y-148220000D01*
X286760000Y-142310000D02*
X286050000Y-143020000D01*
X286070000Y-133680000D02*
X286760000Y-134370000D01*
X286070000Y-130680000D02*
X286070000Y-133680000D01*
X285700000Y-130310000D02*
X286070000Y-130680000D01*
X286080000Y-134660000D02*
X286080000Y-142210000D01*
X285500000Y-142790000D02*
X285500000Y-148820000D01*
X286080000Y-142210000D02*
X285500000Y-142790000D01*
X285700000Y-134280000D02*
X286080000Y-134660000D01*
X285700000Y-131710000D02*
X285700000Y-134280000D01*
X285580000Y-131590000D02*
X285700000Y-131710000D01*
X285400000Y-134970000D02*
X285400000Y-141910000D01*
X284930000Y-142380000D02*
X284930000Y-149370000D01*
X285400000Y-141910000D02*
X284930000Y-142380000D01*
X285250000Y-134820000D02*
X285400000Y-134970000D01*
X285250000Y-133000000D02*
X285250000Y-134820000D01*
X284940000Y-132690000D02*
X285250000Y-133000000D01*
X291080000Y-131490000D02*
X293840000Y-131490000D01*
X287970000Y-134600000D02*
X291080000Y-131490000D01*
X288690000Y-147770000D02*
X288690000Y-147690000D01*
X293840000Y-152920000D02*
X288690000Y-147770000D01*
X294210000Y-142580000D02*
X290270000Y-142580000D01*
X290270000Y-142580000D02*
X287780000Y-145070000D01*
D19*
G36*
X283046371Y-126382630D02*
X282833243Y-126895900D01*
X282832758Y-127451661D01*
X282908799Y-127635695D01*
X281358596Y-129185898D01*
X281298943Y-129185846D01*
X280972080Y-129320903D01*
X280721782Y-129570764D01*
X280586154Y-129897391D01*
X280585846Y-130251057D01*
X280662862Y-130437451D01*
X280561154Y-130682391D01*
X280560846Y-131036057D01*
X280695903Y-131362920D01*
X280945764Y-131613218D01*
X281272391Y-131748846D01*
X281626057Y-131749154D01*
X281952920Y-131614097D01*
X282203218Y-131364236D01*
X282338846Y-131037609D01*
X282338873Y-131006633D01*
X284304506Y-129041000D01*
X284560000Y-129041000D01*
X284832088Y-128986878D01*
X285062753Y-128832753D01*
X285529484Y-128366022D01*
X285543910Y-128388441D01*
X285756110Y-128533431D01*
X286008000Y-128584440D01*
X287532000Y-128584440D01*
X287767317Y-128540162D01*
X287983441Y-128401090D01*
X288128431Y-128188890D01*
X288179440Y-127937000D01*
X288179440Y-126413000D01*
X288136539Y-126185000D01*
X317585000Y-126185000D01*
X317585000Y-157865000D01*
X266585000Y-157865000D01*
X266585000Y-156140213D01*
X268969392Y-156140213D01*
X269038857Y-156382397D01*
X269562302Y-156569144D01*
X270117368Y-156541362D01*
X270501143Y-156382397D01*
X270570608Y-156140213D01*
X269770000Y-155339605D01*
X268969392Y-156140213D01*
X266585000Y-156140213D01*
X266585000Y-154952302D01*
X268360856Y-154952302D01*
X268388638Y-155507368D01*
X268547603Y-155891143D01*
X268789787Y-155960608D01*
X269590395Y-155160000D01*
X269949605Y-155160000D01*
X270750213Y-155960608D01*
X270900560Y-155917484D01*
X270900560Y-155922000D01*
X270944838Y-156157317D01*
X271083910Y-156373441D01*
X271296110Y-156518431D01*
X271548000Y-156569440D01*
X273072000Y-156569440D01*
X273307317Y-156525162D01*
X273523441Y-156386090D01*
X273668431Y-156173890D01*
X273719440Y-155922000D01*
X273719440Y-155498000D01*
X274340560Y-155498000D01*
X274340560Y-157022000D01*
X274384838Y-157257317D01*
X274523910Y-157473441D01*
X274736110Y-157618431D01*
X274988000Y-157669440D01*
X276512000Y-157669440D01*
X276747317Y-157625162D01*
X276963441Y-157486090D01*
X277108431Y-157273890D01*
X277159440Y-157022000D01*
X277159440Y-156205750D01*
X278673000Y-156205750D01*
X278673000Y-156808309D01*
X278769673Y-157041698D01*
X278948301Y-157220327D01*
X279181690Y-157317000D01*
X279784250Y-157317000D01*
X279943000Y-157158250D01*
X279943000Y-156047000D01*
X280197000Y-156047000D01*
X280197000Y-157158250D01*
X280355750Y-157317000D01*
X280958310Y-157317000D01*
X281191699Y-157220327D01*
X281370327Y-157041698D01*
X281467000Y-156808309D01*
X281467000Y-156205750D01*
X281308250Y-156047000D01*
X280197000Y-156047000D01*
X279943000Y-156047000D01*
X278831750Y-156047000D01*
X278673000Y-156205750D01*
X277159440Y-156205750D01*
X277159440Y-155910514D01*
X278038262Y-155031691D01*
X278673000Y-155031691D01*
X278673000Y-155634250D01*
X278831750Y-155793000D01*
X279943000Y-155793000D01*
X279943000Y-155773000D01*
X280197000Y-155773000D01*
X280197000Y-155793000D01*
X281308250Y-155793000D01*
X281467000Y-155634250D01*
X281467000Y-155031691D01*
X281370327Y-154798302D01*
X281191699Y-154619673D01*
X280958310Y-154523000D01*
X280823916Y-154523000D01*
X280870608Y-154360213D01*
X280070000Y-153559605D01*
X279269392Y-154360213D01*
X279316084Y-154523000D01*
X279181690Y-154523000D01*
X278948301Y-154619673D01*
X278769673Y-154798302D01*
X278673000Y-155031691D01*
X278038262Y-155031691D01*
X278319974Y-154749979D01*
X278319977Y-154749977D01*
X278482448Y-154506821D01*
X278506306Y-154386878D01*
X278539501Y-154220000D01*
X278539500Y-154219995D01*
X278539500Y-153172302D01*
X278660856Y-153172302D01*
X278688638Y-153727368D01*
X278847603Y-154111143D01*
X279089787Y-154180608D01*
X279890395Y-153380000D01*
X280249605Y-153380000D01*
X281050213Y-154180608D01*
X281292397Y-154111143D01*
X281479144Y-153587698D01*
X281451362Y-153032632D01*
X281292397Y-152648857D01*
X281050213Y-152579392D01*
X280249605Y-153380000D01*
X279890395Y-153380000D01*
X279089787Y-152579392D01*
X278847603Y-152648857D01*
X278660856Y-153172302D01*
X278539500Y-153172302D01*
X278539500Y-152399787D01*
X279269392Y-152399787D01*
X280070000Y-153200395D01*
X280870608Y-152399787D01*
X280801143Y-152157603D01*
X280277698Y-151970856D01*
X279722632Y-151998638D01*
X279338857Y-152157603D01*
X279269392Y-152399787D01*
X278539500Y-152399787D01*
X278539500Y-150927948D01*
X278543218Y-150924236D01*
X278678846Y-150597609D01*
X278679154Y-150243943D01*
X278544097Y-149917080D01*
X278539500Y-149912475D01*
X278539500Y-147497755D01*
X278653218Y-147384236D01*
X278788846Y-147057609D01*
X278789154Y-146703943D01*
X278654097Y-146377080D01*
X278404236Y-146126782D01*
X278077609Y-145991154D01*
X277723943Y-145990846D01*
X277397080Y-146125903D01*
X277146782Y-146375764D01*
X277011154Y-146702391D01*
X277010846Y-147056057D01*
X277040500Y-147127825D01*
X277040500Y-149912052D01*
X277036782Y-149915764D01*
X276901154Y-150242391D01*
X276900846Y-150596057D01*
X277035903Y-150922920D01*
X277040500Y-150927525D01*
X277040500Y-153153272D01*
X276972397Y-152988857D01*
X276730213Y-152919392D01*
X275929605Y-153720000D01*
X275943748Y-153734143D01*
X275764143Y-153913748D01*
X275750000Y-153899605D01*
X274949392Y-154700213D01*
X274992516Y-154850560D01*
X274988000Y-154850560D01*
X274752683Y-154894838D01*
X274536559Y-155033910D01*
X274391569Y-155246110D01*
X274340560Y-155498000D01*
X273719440Y-155498000D01*
X273719440Y-154398000D01*
X273675162Y-154162683D01*
X273536090Y-153946559D01*
X273323890Y-153801569D01*
X273072000Y-153750560D01*
X271548000Y-153750560D01*
X271312683Y-153794838D01*
X271096559Y-153933910D01*
X270951569Y-154146110D01*
X270900560Y-154398000D01*
X270900560Y-154402516D01*
X270750213Y-154359392D01*
X269949605Y-155160000D01*
X269590395Y-155160000D01*
X268789787Y-154359392D01*
X268547603Y-154428857D01*
X268360856Y-154952302D01*
X266585000Y-154952302D01*
X266585000Y-154179787D01*
X268969392Y-154179787D01*
X269770000Y-154980395D01*
X270570608Y-154179787D01*
X270501143Y-153937603D01*
X269977698Y-153750856D01*
X269422632Y-153778638D01*
X269038857Y-153937603D01*
X268969392Y-154179787D01*
X266585000Y-154179787D01*
X266585000Y-153512302D01*
X274340856Y-153512302D01*
X274368638Y-154067368D01*
X274527603Y-154451143D01*
X274769787Y-154520608D01*
X275570395Y-153720000D01*
X274769787Y-152919392D01*
X274527603Y-152988857D01*
X274340856Y-153512302D01*
X266585000Y-153512302D01*
X266585000Y-152739787D01*
X274949392Y-152739787D01*
X275750000Y-153540395D01*
X276550608Y-152739787D01*
X276481143Y-152497603D01*
X275957698Y-152310856D01*
X275402632Y-152338638D01*
X275018857Y-152497603D01*
X274949392Y-152739787D01*
X266585000Y-152739787D01*
X266585000Y-152050213D01*
X268969392Y-152050213D01*
X269038857Y-152292397D01*
X269562302Y-152479144D01*
X270117368Y-152451362D01*
X270501143Y-152292397D01*
X270570608Y-152050213D01*
X269770000Y-151249605D01*
X268969392Y-152050213D01*
X266585000Y-152050213D01*
X266585000Y-150862302D01*
X268360856Y-150862302D01*
X268388638Y-151417368D01*
X268547603Y-151801143D01*
X268789787Y-151870608D01*
X269590395Y-151070000D01*
X268789787Y-150269392D01*
X268547603Y-150338857D01*
X268360856Y-150862302D01*
X266585000Y-150862302D01*
X266585000Y-150089787D01*
X268969392Y-150089787D01*
X269770000Y-150890395D01*
X270570608Y-150089787D01*
X270501143Y-149847603D01*
X269977698Y-149660856D01*
X269422632Y-149688638D01*
X269038857Y-149847603D01*
X268969392Y-150089787D01*
X266585000Y-150089787D01*
X266585000Y-132127000D01*
X268383962Y-132127000D01*
X268302912Y-132143122D01*
X268072247Y-132297247D01*
X267933596Y-132435898D01*
X267873943Y-132435846D01*
X267547080Y-132570903D01*
X267296782Y-132820764D01*
X267161154Y-133147391D01*
X267160846Y-133501057D01*
X267295903Y-133827920D01*
X267545764Y-134078218D01*
X267872391Y-134213846D01*
X268026002Y-134213980D01*
X267989000Y-134400000D01*
X268043122Y-134672088D01*
X268197247Y-134902753D01*
X268427912Y-135056878D01*
X268700000Y-135111000D01*
X273225000Y-135111000D01*
X273497088Y-135056878D01*
X273727753Y-134902753D01*
X274116404Y-134514102D01*
X274176057Y-134514154D01*
X274256400Y-134480957D01*
X274256400Y-136130533D01*
X274242800Y-136146400D01*
X268390000Y-136146400D01*
X268059515Y-136212138D01*
X267779343Y-136399343D01*
X267657923Y-136520763D01*
X267597080Y-136545903D01*
X267346782Y-136795764D01*
X267211154Y-137122391D01*
X267210846Y-137476057D01*
X267345903Y-137802920D01*
X267595764Y-138053218D01*
X267922391Y-138188846D01*
X268276057Y-138189154D01*
X268602920Y-138054097D01*
X268783733Y-137873600D01*
X274401592Y-137873600D01*
X274462391Y-137898846D01*
X274477545Y-137898859D01*
X277219606Y-140640921D01*
X277133943Y-140640846D01*
X276807080Y-140775903D01*
X276556782Y-141025764D01*
X276421154Y-141352391D01*
X276420846Y-141706057D01*
X276555903Y-142032920D01*
X276599000Y-142076092D01*
X276599000Y-142845494D01*
X276490776Y-142953718D01*
X276264236Y-142726782D01*
X275937609Y-142591154D01*
X275876607Y-142591101D01*
X275299146Y-142013640D01*
X275299154Y-142003943D01*
X275164097Y-141677080D01*
X274914236Y-141426782D01*
X274587609Y-141291154D01*
X274233943Y-141290846D01*
X273907080Y-141425903D01*
X273656782Y-141675764D01*
X273521154Y-142002391D01*
X273520846Y-142356057D01*
X273655903Y-142682920D01*
X273905764Y-142933218D01*
X274232391Y-143068846D01*
X274343437Y-143068943D01*
X274870898Y-143596404D01*
X274870846Y-143656057D01*
X274921645Y-143779000D01*
X270534506Y-143779000D01*
X270459102Y-143703596D01*
X270459154Y-143643943D01*
X270324097Y-143317080D01*
X270074236Y-143066782D01*
X269747609Y-142931154D01*
X269393943Y-142930846D01*
X269067080Y-143065903D01*
X268816782Y-143315764D01*
X268681154Y-143642391D01*
X268680846Y-143996057D01*
X268815903Y-144322920D01*
X269065764Y-144573218D01*
X269392391Y-144708846D01*
X269453393Y-144708899D01*
X269737247Y-144992753D01*
X269967912Y-145146878D01*
X270240000Y-145201000D01*
X271747686Y-145201000D01*
X271699343Y-145249343D01*
X271512138Y-145529515D01*
X271446400Y-145860000D01*
X271446400Y-149679677D01*
X271312683Y-149704838D01*
X271096559Y-149843910D01*
X270951569Y-150056110D01*
X270900560Y-150308000D01*
X270900560Y-150312516D01*
X270750213Y-150269392D01*
X269949605Y-151070000D01*
X270750213Y-151870608D01*
X270900560Y-151827484D01*
X270900560Y-151832000D01*
X270944838Y-152067317D01*
X271083910Y-152283441D01*
X271296110Y-152428431D01*
X271548000Y-152479440D01*
X273072000Y-152479440D01*
X273307317Y-152435162D01*
X273523441Y-152296090D01*
X273668431Y-152083890D01*
X273719440Y-151832000D01*
X273719440Y-150308000D01*
X273675162Y-150072683D01*
X273536090Y-149856559D01*
X273323890Y-149711569D01*
X273173600Y-149681135D01*
X273173600Y-146217714D01*
X273367715Y-146023600D01*
X274871592Y-146023600D01*
X274932391Y-146048846D01*
X275286057Y-146049154D01*
X275612920Y-145914097D01*
X275656092Y-145871000D01*
X276120000Y-145871000D01*
X276392088Y-145816878D01*
X276622753Y-145662753D01*
X279127500Y-143158006D01*
X280222247Y-144252753D01*
X280452912Y-144406878D01*
X280725000Y-144461000D01*
X281878620Y-144461000D01*
X281920764Y-144503218D01*
X282247391Y-144638846D01*
X282601057Y-144639154D01*
X282927920Y-144504097D01*
X283178218Y-144254236D01*
X283179000Y-144252353D01*
X283179000Y-144639454D01*
X283159000Y-144740000D01*
X283159000Y-147495494D01*
X281498596Y-149155898D01*
X281438943Y-149155846D01*
X281112080Y-149290903D01*
X280861782Y-149540764D01*
X280726154Y-149867391D01*
X280725846Y-150221057D01*
X280860903Y-150547920D01*
X280904000Y-150591092D01*
X280904000Y-151821000D01*
X280958122Y-152093088D01*
X281112247Y-152323753D01*
X284921247Y-156132753D01*
X285151912Y-156286878D01*
X285424000Y-156341000D01*
X287213620Y-156341000D01*
X287255764Y-156383218D01*
X287582391Y-156518846D01*
X287936057Y-156519154D01*
X288262920Y-156384097D01*
X288306092Y-156341000D01*
X294720000Y-156341000D01*
X294992088Y-156286878D01*
X295222753Y-156132753D01*
X295843442Y-155512064D01*
X295855910Y-155531441D01*
X296068110Y-155676431D01*
X296320000Y-155727440D01*
X298020000Y-155727440D01*
X298255317Y-155683162D01*
X298471441Y-155544090D01*
X298616431Y-155331890D01*
X298630086Y-155264459D01*
X298659946Y-155309147D01*
X299141715Y-155631054D01*
X299710000Y-155744093D01*
X300278285Y-155631054D01*
X300760054Y-155309147D01*
X300980000Y-154979974D01*
X301199946Y-155309147D01*
X301681715Y-155631054D01*
X302250000Y-155744093D01*
X302818285Y-155631054D01*
X303300054Y-155309147D01*
X303520000Y-154979974D01*
X303739946Y-155309147D01*
X304221715Y-155631054D01*
X304790000Y-155744093D01*
X305358285Y-155631054D01*
X305840054Y-155309147D01*
X306060000Y-154979974D01*
X306279946Y-155309147D01*
X306761715Y-155631054D01*
X307330000Y-155744093D01*
X307898285Y-155631054D01*
X308380054Y-155309147D01*
X308600000Y-154979974D01*
X308819946Y-155309147D01*
X309301715Y-155631054D01*
X309870000Y-155744093D01*
X310438285Y-155631054D01*
X310920054Y-155309147D01*
X311140000Y-154979974D01*
X311359946Y-155309147D01*
X311841715Y-155631054D01*
X312410000Y-155744093D01*
X312978285Y-155631054D01*
X313460054Y-155309147D01*
X313680000Y-154979974D01*
X313899946Y-155309147D01*
X314381715Y-155631054D01*
X314950000Y-155744093D01*
X315518285Y-155631054D01*
X316000054Y-155309147D01*
X316321961Y-154827378D01*
X316435000Y-154259093D01*
X316435000Y-154200907D01*
X316321961Y-153632622D01*
X316000054Y-153150853D01*
X315530997Y-152837440D01*
X315780000Y-152837440D01*
X316015317Y-152793162D01*
X316231441Y-152654090D01*
X316376431Y-152441890D01*
X316427440Y-152190000D01*
X316427440Y-150490000D01*
X316383162Y-150254683D01*
X316244090Y-150038559D01*
X316031890Y-149893569D01*
X315780000Y-149842560D01*
X314080000Y-149842560D01*
X313844683Y-149886838D01*
X313628559Y-150025910D01*
X313483569Y-150238110D01*
X313469914Y-150305541D01*
X313440054Y-150260853D01*
X312958285Y-149938946D01*
X312390000Y-149825907D01*
X311821715Y-149938946D01*
X311339946Y-150260853D01*
X311120000Y-150590026D01*
X310900054Y-150260853D01*
X310418285Y-149938946D01*
X309850000Y-149825907D01*
X309281715Y-149938946D01*
X308799946Y-150260853D01*
X308580000Y-150590026D01*
X308360054Y-150260853D01*
X307878285Y-149938946D01*
X307310000Y-149825907D01*
X306741715Y-149938946D01*
X306259946Y-150260853D01*
X306040000Y-150590026D01*
X305820054Y-150260853D01*
X305338285Y-149938946D01*
X304770000Y-149825907D01*
X304201715Y-149938946D01*
X303719946Y-150260853D01*
X303500000Y-150590026D01*
X303280054Y-150260853D01*
X302798285Y-149938946D01*
X302230000Y-149825907D01*
X301661715Y-149938946D01*
X301179946Y-150260853D01*
X300960000Y-150590026D01*
X300740054Y-150260853D01*
X300258285Y-149938946D01*
X299690000Y-149825907D01*
X299121715Y-149938946D01*
X298639946Y-150260853D01*
X298420000Y-150590026D01*
X298200054Y-150260853D01*
X297718285Y-149938946D01*
X297150000Y-149825907D01*
X296581715Y-149938946D01*
X296099946Y-150260853D01*
X295778039Y-150742622D01*
X295665000Y-151310907D01*
X295665000Y-151369093D01*
X295778039Y-151937378D01*
X296099946Y-152419147D01*
X296569003Y-152732560D01*
X296320000Y-152732560D01*
X296084683Y-152776838D01*
X295868559Y-152915910D01*
X295861600Y-152926094D01*
X294989102Y-152053596D01*
X294989154Y-151993943D01*
X294854097Y-151667080D01*
X294604236Y-151416782D01*
X294277609Y-151281154D01*
X293923943Y-151280846D01*
X293597080Y-151415903D01*
X293469133Y-151543627D01*
X289579032Y-147653526D01*
X289579154Y-147513943D01*
X289444097Y-147187080D01*
X289194236Y-146936782D01*
X288867609Y-146801154D01*
X288513943Y-146800846D01*
X288187080Y-146935903D01*
X287936782Y-147185764D01*
X287801154Y-147512391D01*
X287800846Y-147866057D01*
X287935903Y-148192920D01*
X288185764Y-148443218D01*
X288479812Y-148565318D01*
X292950898Y-153036404D01*
X292950846Y-153096057D01*
X293085903Y-153422920D01*
X293335764Y-153673218D01*
X293662391Y-153808846D01*
X294016057Y-153809154D01*
X294342920Y-153674097D01*
X294470867Y-153546373D01*
X294949000Y-154024506D01*
X294949000Y-154395494D01*
X294425494Y-154919000D01*
X288306380Y-154919000D01*
X288264236Y-154876782D01*
X287937609Y-154741154D01*
X287583943Y-154740846D01*
X287257080Y-154875903D01*
X287213908Y-154919000D01*
X285718506Y-154919000D01*
X282326000Y-151526494D01*
X282326000Y-150591380D01*
X282368218Y-150549236D01*
X282503846Y-150222609D01*
X282503899Y-150161607D01*
X284219000Y-148446506D01*
X284219000Y-148823620D01*
X284176782Y-148865764D01*
X284041154Y-149192391D01*
X284040846Y-149546057D01*
X284175903Y-149872920D01*
X284425764Y-150123218D01*
X284752391Y-150258846D01*
X285106057Y-150259154D01*
X285432920Y-150124097D01*
X285683218Y-149874236D01*
X285767446Y-149671393D01*
X286002920Y-149574097D01*
X286253218Y-149324236D01*
X286366650Y-149051062D01*
X286552920Y-148974097D01*
X286803218Y-148724236D01*
X286879493Y-148540547D01*
X287112920Y-148444097D01*
X287363218Y-148194236D01*
X287498846Y-147867609D01*
X287499154Y-147513943D01*
X287364097Y-147187080D01*
X287321000Y-147143908D01*
X287321000Y-145842002D01*
X287602391Y-145958846D01*
X287956057Y-145959154D01*
X288282920Y-145824097D01*
X288533218Y-145574236D01*
X288668846Y-145247609D01*
X288668899Y-145186607D01*
X290564506Y-143291000D01*
X293663620Y-143291000D01*
X293705764Y-143333218D01*
X294032391Y-143468846D01*
X294386057Y-143469154D01*
X294712920Y-143334097D01*
X294963218Y-143084236D01*
X295098846Y-142757609D01*
X295098972Y-142612498D01*
X295312920Y-142524097D01*
X295563218Y-142274236D01*
X295698846Y-141947609D01*
X295698899Y-141886607D01*
X296132753Y-141452753D01*
X296242418Y-141288627D01*
X296469946Y-141629147D01*
X296939003Y-141942560D01*
X296690000Y-141942560D01*
X296454683Y-141986838D01*
X296238559Y-142125910D01*
X296093569Y-142338110D01*
X296042560Y-142590000D01*
X296042560Y-144290000D01*
X296086838Y-144525317D01*
X296225910Y-144741441D01*
X296438110Y-144886431D01*
X296690000Y-144937440D01*
X298390000Y-144937440D01*
X298625317Y-144893162D01*
X298841441Y-144754090D01*
X298986431Y-144541890D01*
X299000086Y-144474459D01*
X299029946Y-144519147D01*
X299511715Y-144841054D01*
X300080000Y-144954093D01*
X300648285Y-144841054D01*
X301130054Y-144519147D01*
X301350000Y-144189974D01*
X301569946Y-144519147D01*
X302051715Y-144841054D01*
X302620000Y-144954093D01*
X303188285Y-144841054D01*
X303670054Y-144519147D01*
X303890000Y-144189974D01*
X304109946Y-144519147D01*
X304591715Y-144841054D01*
X305160000Y-144954093D01*
X305728285Y-144841054D01*
X306210054Y-144519147D01*
X306430000Y-144189974D01*
X306649946Y-144519147D01*
X307131715Y-144841054D01*
X307700000Y-144954093D01*
X308268285Y-144841054D01*
X308750054Y-144519147D01*
X308970000Y-144189974D01*
X309189946Y-144519147D01*
X309671715Y-144841054D01*
X310240000Y-144954093D01*
X310808285Y-144841054D01*
X311290054Y-144519147D01*
X311510000Y-144189974D01*
X311729946Y-144519147D01*
X312211715Y-144841054D01*
X312780000Y-144954093D01*
X313348285Y-144841054D01*
X313830054Y-144519147D01*
X314050000Y-144189974D01*
X314269946Y-144519147D01*
X314751715Y-144841054D01*
X315320000Y-144954093D01*
X315888285Y-144841054D01*
X316370054Y-144519147D01*
X316691961Y-144037378D01*
X316805000Y-143469093D01*
X316805000Y-143410907D01*
X316691961Y-142842622D01*
X316370054Y-142360853D01*
X315900997Y-142047440D01*
X316150000Y-142047440D01*
X316385317Y-142003162D01*
X316601441Y-141864090D01*
X316746431Y-141651890D01*
X316797440Y-141400000D01*
X316797440Y-139700000D01*
X316753162Y-139464683D01*
X316614090Y-139248559D01*
X316401890Y-139103569D01*
X316150000Y-139052560D01*
X314450000Y-139052560D01*
X314214683Y-139096838D01*
X313998559Y-139235910D01*
X313853569Y-139448110D01*
X313839914Y-139515541D01*
X313810054Y-139470853D01*
X313328285Y-139148946D01*
X312760000Y-139035907D01*
X312191715Y-139148946D01*
X311709946Y-139470853D01*
X311490000Y-139800026D01*
X311270054Y-139470853D01*
X310788285Y-139148946D01*
X310220000Y-139035907D01*
X309651715Y-139148946D01*
X309169946Y-139470853D01*
X308950000Y-139800026D01*
X308730054Y-139470853D01*
X308248285Y-139148946D01*
X307680000Y-139035907D01*
X307111715Y-139148946D01*
X306629946Y-139470853D01*
X306410000Y-139800026D01*
X306190054Y-139470853D01*
X305708285Y-139148946D01*
X305140000Y-139035907D01*
X304571715Y-139148946D01*
X304089946Y-139470853D01*
X303870000Y-139800026D01*
X303650054Y-139470853D01*
X303168285Y-139148946D01*
X302600000Y-139035907D01*
X302031715Y-139148946D01*
X301549946Y-139470853D01*
X301330000Y-139800026D01*
X301110054Y-139470853D01*
X300628285Y-139148946D01*
X300060000Y-139035907D01*
X299491715Y-139148946D01*
X299009946Y-139470853D01*
X298790000Y-139800026D01*
X298570054Y-139470853D01*
X298088285Y-139148946D01*
X297520000Y-139035907D01*
X296951715Y-139148946D01*
X296469946Y-139470853D01*
X296341000Y-139663835D01*
X296341000Y-134077440D01*
X297970000Y-134077440D01*
X298205317Y-134033162D01*
X298421441Y-133894090D01*
X298566431Y-133681890D01*
X298580086Y-133614459D01*
X298609946Y-133659147D01*
X299091715Y-133981054D01*
X299660000Y-134094093D01*
X300228285Y-133981054D01*
X300710054Y-133659147D01*
X300930000Y-133329974D01*
X301149946Y-133659147D01*
X301631715Y-133981054D01*
X302200000Y-134094093D01*
X302768285Y-133981054D01*
X303250054Y-133659147D01*
X303470000Y-133329974D01*
X303689946Y-133659147D01*
X304171715Y-133981054D01*
X304740000Y-134094093D01*
X305308285Y-133981054D01*
X305790054Y-133659147D01*
X306010000Y-133329974D01*
X306229946Y-133659147D01*
X306711715Y-133981054D01*
X307280000Y-134094093D01*
X307848285Y-133981054D01*
X308330054Y-133659147D01*
X308550000Y-133329974D01*
X308769946Y-133659147D01*
X309251715Y-133981054D01*
X309820000Y-134094093D01*
X310388285Y-133981054D01*
X310870054Y-133659147D01*
X311090000Y-133329974D01*
X311309946Y-133659147D01*
X311791715Y-133981054D01*
X312360000Y-134094093D01*
X312928285Y-133981054D01*
X313410054Y-133659147D01*
X313630000Y-133329974D01*
X313849946Y-133659147D01*
X314331715Y-133981054D01*
X314900000Y-134094093D01*
X315468285Y-133981054D01*
X315950054Y-133659147D01*
X316271961Y-133177378D01*
X316385000Y-132609093D01*
X316385000Y-132550907D01*
X316271961Y-131982622D01*
X315950054Y-131500853D01*
X315480997Y-131187440D01*
X315730000Y-131187440D01*
X315965317Y-131143162D01*
X316181441Y-131004090D01*
X316326431Y-130791890D01*
X316377440Y-130540000D01*
X316377440Y-128840000D01*
X316333162Y-128604683D01*
X316194090Y-128388559D01*
X315981890Y-128243569D01*
X315730000Y-128192560D01*
X314030000Y-128192560D01*
X313794683Y-128236838D01*
X313578559Y-128375910D01*
X313433569Y-128588110D01*
X313419914Y-128655541D01*
X313390054Y-128610853D01*
X312908285Y-128288946D01*
X312340000Y-128175907D01*
X311771715Y-128288946D01*
X311289946Y-128610853D01*
X311070000Y-128940026D01*
X310850054Y-128610853D01*
X310368285Y-128288946D01*
X309800000Y-128175907D01*
X309231715Y-128288946D01*
X308749946Y-128610853D01*
X308530000Y-128940026D01*
X308310054Y-128610853D01*
X307828285Y-128288946D01*
X307260000Y-128175907D01*
X306691715Y-128288946D01*
X306209946Y-128610853D01*
X305990000Y-128940026D01*
X305770054Y-128610853D01*
X305288285Y-128288946D01*
X304720000Y-128175907D01*
X304151715Y-128288946D01*
X303669946Y-128610853D01*
X303450000Y-128940026D01*
X303230054Y-128610853D01*
X302748285Y-128288946D01*
X302180000Y-128175907D01*
X301611715Y-128288946D01*
X301129946Y-128610853D01*
X300910000Y-128940026D01*
X300690054Y-128610853D01*
X300208285Y-128288946D01*
X299640000Y-128175907D01*
X299071715Y-128288946D01*
X298589946Y-128610853D01*
X298370000Y-128940026D01*
X298150054Y-128610853D01*
X297668285Y-128288946D01*
X297100000Y-128175907D01*
X296531715Y-128288946D01*
X296049946Y-128610853D01*
X295728039Y-129092622D01*
X295615000Y-129660907D01*
X295615000Y-129719093D01*
X295728039Y-130287378D01*
X296049946Y-130769147D01*
X296519003Y-131082560D01*
X296270000Y-131082560D01*
X296222461Y-131091505D01*
X296132753Y-130957247D01*
X295582753Y-130407247D01*
X295352088Y-130253122D01*
X295080000Y-130199000D01*
X294936380Y-130199000D01*
X294894236Y-130156782D01*
X294567609Y-130021154D01*
X294213943Y-130020846D01*
X293982134Y-130116628D01*
X293562753Y-129697247D01*
X293332088Y-129543122D01*
X293060000Y-129489000D01*
X289910000Y-129489000D01*
X289637912Y-129543122D01*
X289407247Y-129697247D01*
X287831000Y-131273494D01*
X287831000Y-129870000D01*
X287776878Y-129597912D01*
X287622753Y-129367247D01*
X287352753Y-129097247D01*
X287262343Y-129036837D01*
X287142753Y-128917247D01*
X286912088Y-128763122D01*
X286640000Y-128709000D01*
X285800000Y-128709000D01*
X285527912Y-128763122D01*
X285297247Y-128917247D01*
X284697247Y-129517247D01*
X284543122Y-129747912D01*
X284489000Y-130020000D01*
X284489000Y-130805494D01*
X283817247Y-131477247D01*
X283663122Y-131707912D01*
X283609000Y-131980000D01*
X283609000Y-132495494D01*
X283597247Y-132507247D01*
X283443122Y-132737912D01*
X283389000Y-133010000D01*
X283389000Y-133325494D01*
X283083596Y-133630898D01*
X283023943Y-133630846D01*
X282697080Y-133765903D01*
X282446782Y-134015764D01*
X282311154Y-134342391D01*
X282310846Y-134696057D01*
X282445903Y-135022920D01*
X282489000Y-135066092D01*
X282489000Y-136470460D01*
X282409097Y-136277080D01*
X282159236Y-136026782D01*
X281832609Y-135891154D01*
X281478943Y-135890846D01*
X281152080Y-136025903D01*
X281031372Y-136146400D01*
X275983600Y-136146400D01*
X275983600Y-131218408D01*
X276008846Y-131157609D01*
X276009154Y-130803943D01*
X275983600Y-130742098D01*
X275983600Y-129990000D01*
X275921522Y-129677913D01*
X275917862Y-129659514D01*
X275730657Y-129379342D01*
X275359236Y-129007922D01*
X275334097Y-128947080D01*
X275084236Y-128696782D01*
X274757609Y-128561154D01*
X274403943Y-128560846D01*
X274077080Y-128695903D01*
X273826782Y-128945764D01*
X273691154Y-129272391D01*
X273690846Y-129626057D01*
X273825903Y-129952920D01*
X274075764Y-130203218D01*
X274137566Y-130228881D01*
X274256400Y-130347715D01*
X274256400Y-130741592D01*
X274231154Y-130802391D01*
X274230846Y-131156057D01*
X274256400Y-131217902D01*
X274256400Y-131306157D01*
X274027609Y-131211154D01*
X273673943Y-131210846D01*
X273347080Y-131345903D01*
X273096782Y-131595764D01*
X272961154Y-131922391D01*
X272961101Y-131983393D01*
X272855494Y-132089000D01*
X272640381Y-132089000D01*
X272641035Y-132088553D01*
X272668315Y-132046159D01*
X272677000Y-132000000D01*
X272677000Y-126185000D01*
X283244346Y-126185000D01*
X283046371Y-126382630D01*
X283046371Y-126382630D01*
G37*
X283046371Y-126382630D02*
X282833243Y-126895900D01*
X282832758Y-127451661D01*
X282908799Y-127635695D01*
X281358596Y-129185898D01*
X281298943Y-129185846D01*
X280972080Y-129320903D01*
X280721782Y-129570764D01*
X280586154Y-129897391D01*
X280585846Y-130251057D01*
X280662862Y-130437451D01*
X280561154Y-130682391D01*
X280560846Y-131036057D01*
X280695903Y-131362920D01*
X280945764Y-131613218D01*
X281272391Y-131748846D01*
X281626057Y-131749154D01*
X281952920Y-131614097D01*
X282203218Y-131364236D01*
X282338846Y-131037609D01*
X282338873Y-131006633D01*
X284304506Y-129041000D01*
X284560000Y-129041000D01*
X284832088Y-128986878D01*
X285062753Y-128832753D01*
X285529484Y-128366022D01*
X285543910Y-128388441D01*
X285756110Y-128533431D01*
X286008000Y-128584440D01*
X287532000Y-128584440D01*
X287767317Y-128540162D01*
X287983441Y-128401090D01*
X288128431Y-128188890D01*
X288179440Y-127937000D01*
X288179440Y-126413000D01*
X288136539Y-126185000D01*
X317585000Y-126185000D01*
X317585000Y-157865000D01*
X266585000Y-157865000D01*
X266585000Y-156140213D01*
X268969392Y-156140213D01*
X269038857Y-156382397D01*
X269562302Y-156569144D01*
X270117368Y-156541362D01*
X270501143Y-156382397D01*
X270570608Y-156140213D01*
X269770000Y-155339605D01*
X268969392Y-156140213D01*
X266585000Y-156140213D01*
X266585000Y-154952302D01*
X268360856Y-154952302D01*
X268388638Y-155507368D01*
X268547603Y-155891143D01*
X268789787Y-155960608D01*
X269590395Y-155160000D01*
X269949605Y-155160000D01*
X270750213Y-155960608D01*
X270900560Y-155917484D01*
X270900560Y-155922000D01*
X270944838Y-156157317D01*
X271083910Y-156373441D01*
X271296110Y-156518431D01*
X271548000Y-156569440D01*
X273072000Y-156569440D01*
X273307317Y-156525162D01*
X273523441Y-156386090D01*
X273668431Y-156173890D01*
X273719440Y-155922000D01*
X273719440Y-155498000D01*
X274340560Y-155498000D01*
X274340560Y-157022000D01*
X274384838Y-157257317D01*
X274523910Y-157473441D01*
X274736110Y-157618431D01*
X274988000Y-157669440D01*
X276512000Y-157669440D01*
X276747317Y-157625162D01*
X276963441Y-157486090D01*
X277108431Y-157273890D01*
X277159440Y-157022000D01*
X277159440Y-156205750D01*
X278673000Y-156205750D01*
X278673000Y-156808309D01*
X278769673Y-157041698D01*
X278948301Y-157220327D01*
X279181690Y-157317000D01*
X279784250Y-157317000D01*
X279943000Y-157158250D01*
X279943000Y-156047000D01*
X280197000Y-156047000D01*
X280197000Y-157158250D01*
X280355750Y-157317000D01*
X280958310Y-157317000D01*
X281191699Y-157220327D01*
X281370327Y-157041698D01*
X281467000Y-156808309D01*
X281467000Y-156205750D01*
X281308250Y-156047000D01*
X280197000Y-156047000D01*
X279943000Y-156047000D01*
X278831750Y-156047000D01*
X278673000Y-156205750D01*
X277159440Y-156205750D01*
X277159440Y-155910514D01*
X278038262Y-155031691D01*
X278673000Y-155031691D01*
X278673000Y-155634250D01*
X278831750Y-155793000D01*
X279943000Y-155793000D01*
X279943000Y-155773000D01*
X280197000Y-155773000D01*
X280197000Y-155793000D01*
X281308250Y-155793000D01*
X281467000Y-155634250D01*
X281467000Y-155031691D01*
X281370327Y-154798302D01*
X281191699Y-154619673D01*
X280958310Y-154523000D01*
X280823916Y-154523000D01*
X280870608Y-154360213D01*
X280070000Y-153559605D01*
X279269392Y-154360213D01*
X279316084Y-154523000D01*
X279181690Y-154523000D01*
X278948301Y-154619673D01*
X278769673Y-154798302D01*
X278673000Y-155031691D01*
X278038262Y-155031691D01*
X278319974Y-154749979D01*
X278319977Y-154749977D01*
X278482448Y-154506821D01*
X278506306Y-154386878D01*
X278539501Y-154220000D01*
X278539500Y-154219995D01*
X278539500Y-153172302D01*
X278660856Y-153172302D01*
X278688638Y-153727368D01*
X278847603Y-154111143D01*
X279089787Y-154180608D01*
X279890395Y-153380000D01*
X280249605Y-153380000D01*
X281050213Y-154180608D01*
X281292397Y-154111143D01*
X281479144Y-153587698D01*
X281451362Y-153032632D01*
X281292397Y-152648857D01*
X281050213Y-152579392D01*
X280249605Y-153380000D01*
X279890395Y-153380000D01*
X279089787Y-152579392D01*
X278847603Y-152648857D01*
X278660856Y-153172302D01*
X278539500Y-153172302D01*
X278539500Y-152399787D01*
X279269392Y-152399787D01*
X280070000Y-153200395D01*
X280870608Y-152399787D01*
X280801143Y-152157603D01*
X280277698Y-151970856D01*
X279722632Y-151998638D01*
X279338857Y-152157603D01*
X279269392Y-152399787D01*
X278539500Y-152399787D01*
X278539500Y-150927948D01*
X278543218Y-150924236D01*
X278678846Y-150597609D01*
X278679154Y-150243943D01*
X278544097Y-149917080D01*
X278539500Y-149912475D01*
X278539500Y-147497755D01*
X278653218Y-147384236D01*
X278788846Y-147057609D01*
X278789154Y-146703943D01*
X278654097Y-146377080D01*
X278404236Y-146126782D01*
X278077609Y-145991154D01*
X277723943Y-145990846D01*
X277397080Y-146125903D01*
X277146782Y-146375764D01*
X277011154Y-146702391D01*
X277010846Y-147056057D01*
X277040500Y-147127825D01*
X277040500Y-149912052D01*
X277036782Y-149915764D01*
X276901154Y-150242391D01*
X276900846Y-150596057D01*
X277035903Y-150922920D01*
X277040500Y-150927525D01*
X277040500Y-153153272D01*
X276972397Y-152988857D01*
X276730213Y-152919392D01*
X275929605Y-153720000D01*
X275943748Y-153734143D01*
X275764143Y-153913748D01*
X275750000Y-153899605D01*
X274949392Y-154700213D01*
X274992516Y-154850560D01*
X274988000Y-154850560D01*
X274752683Y-154894838D01*
X274536559Y-155033910D01*
X274391569Y-155246110D01*
X274340560Y-155498000D01*
X273719440Y-155498000D01*
X273719440Y-154398000D01*
X273675162Y-154162683D01*
X273536090Y-153946559D01*
X273323890Y-153801569D01*
X273072000Y-153750560D01*
X271548000Y-153750560D01*
X271312683Y-153794838D01*
X271096559Y-153933910D01*
X270951569Y-154146110D01*
X270900560Y-154398000D01*
X270900560Y-154402516D01*
X270750213Y-154359392D01*
X269949605Y-155160000D01*
X269590395Y-155160000D01*
X268789787Y-154359392D01*
X268547603Y-154428857D01*
X268360856Y-154952302D01*
X266585000Y-154952302D01*
X266585000Y-154179787D01*
X268969392Y-154179787D01*
X269770000Y-154980395D01*
X270570608Y-154179787D01*
X270501143Y-153937603D01*
X269977698Y-153750856D01*
X269422632Y-153778638D01*
X269038857Y-153937603D01*
X268969392Y-154179787D01*
X266585000Y-154179787D01*
X266585000Y-153512302D01*
X274340856Y-153512302D01*
X274368638Y-154067368D01*
X274527603Y-154451143D01*
X274769787Y-154520608D01*
X275570395Y-153720000D01*
X274769787Y-152919392D01*
X274527603Y-152988857D01*
X274340856Y-153512302D01*
X266585000Y-153512302D01*
X266585000Y-152739787D01*
X274949392Y-152739787D01*
X275750000Y-153540395D01*
X276550608Y-152739787D01*
X276481143Y-152497603D01*
X275957698Y-152310856D01*
X275402632Y-152338638D01*
X275018857Y-152497603D01*
X274949392Y-152739787D01*
X266585000Y-152739787D01*
X266585000Y-152050213D01*
X268969392Y-152050213D01*
X269038857Y-152292397D01*
X269562302Y-152479144D01*
X270117368Y-152451362D01*
X270501143Y-152292397D01*
X270570608Y-152050213D01*
X269770000Y-151249605D01*
X268969392Y-152050213D01*
X266585000Y-152050213D01*
X266585000Y-150862302D01*
X268360856Y-150862302D01*
X268388638Y-151417368D01*
X268547603Y-151801143D01*
X268789787Y-151870608D01*
X269590395Y-151070000D01*
X268789787Y-150269392D01*
X268547603Y-150338857D01*
X268360856Y-150862302D01*
X266585000Y-150862302D01*
X266585000Y-150089787D01*
X268969392Y-150089787D01*
X269770000Y-150890395D01*
X270570608Y-150089787D01*
X270501143Y-149847603D01*
X269977698Y-149660856D01*
X269422632Y-149688638D01*
X269038857Y-149847603D01*
X268969392Y-150089787D01*
X266585000Y-150089787D01*
X266585000Y-132127000D01*
X268383962Y-132127000D01*
X268302912Y-132143122D01*
X268072247Y-132297247D01*
X267933596Y-132435898D01*
X267873943Y-132435846D01*
X267547080Y-132570903D01*
X267296782Y-132820764D01*
X267161154Y-133147391D01*
X267160846Y-133501057D01*
X267295903Y-133827920D01*
X267545764Y-134078218D01*
X267872391Y-134213846D01*
X268026002Y-134213980D01*
X267989000Y-134400000D01*
X268043122Y-134672088D01*
X268197247Y-134902753D01*
X268427912Y-135056878D01*
X268700000Y-135111000D01*
X273225000Y-135111000D01*
X273497088Y-135056878D01*
X273727753Y-134902753D01*
X274116404Y-134514102D01*
X274176057Y-134514154D01*
X274256400Y-134480957D01*
X274256400Y-136130533D01*
X274242800Y-136146400D01*
X268390000Y-136146400D01*
X268059515Y-136212138D01*
X267779343Y-136399343D01*
X267657923Y-136520763D01*
X267597080Y-136545903D01*
X267346782Y-136795764D01*
X267211154Y-137122391D01*
X267210846Y-137476057D01*
X267345903Y-137802920D01*
X267595764Y-138053218D01*
X267922391Y-138188846D01*
X268276057Y-138189154D01*
X268602920Y-138054097D01*
X268783733Y-137873600D01*
X274401592Y-137873600D01*
X274462391Y-137898846D01*
X274477545Y-137898859D01*
X277219606Y-140640921D01*
X277133943Y-140640846D01*
X276807080Y-140775903D01*
X276556782Y-141025764D01*
X276421154Y-141352391D01*
X276420846Y-141706057D01*
X276555903Y-142032920D01*
X276599000Y-142076092D01*
X276599000Y-142845494D01*
X276490776Y-142953718D01*
X276264236Y-142726782D01*
X275937609Y-142591154D01*
X275876607Y-142591101D01*
X275299146Y-142013640D01*
X275299154Y-142003943D01*
X275164097Y-141677080D01*
X274914236Y-141426782D01*
X274587609Y-141291154D01*
X274233943Y-141290846D01*
X273907080Y-141425903D01*
X273656782Y-141675764D01*
X273521154Y-142002391D01*
X273520846Y-142356057D01*
X273655903Y-142682920D01*
X273905764Y-142933218D01*
X274232391Y-143068846D01*
X274343437Y-143068943D01*
X274870898Y-143596404D01*
X274870846Y-143656057D01*
X274921645Y-143779000D01*
X270534506Y-143779000D01*
X270459102Y-143703596D01*
X270459154Y-143643943D01*
X270324097Y-143317080D01*
X270074236Y-143066782D01*
X269747609Y-142931154D01*
X269393943Y-142930846D01*
X269067080Y-143065903D01*
X268816782Y-143315764D01*
X268681154Y-143642391D01*
X268680846Y-143996057D01*
X268815903Y-144322920D01*
X269065764Y-144573218D01*
X269392391Y-144708846D01*
X269453393Y-144708899D01*
X269737247Y-144992753D01*
X269967912Y-145146878D01*
X270240000Y-145201000D01*
X271747686Y-145201000D01*
X271699343Y-145249343D01*
X271512138Y-145529515D01*
X271446400Y-145860000D01*
X271446400Y-149679677D01*
X271312683Y-149704838D01*
X271096559Y-149843910D01*
X270951569Y-150056110D01*
X270900560Y-150308000D01*
X270900560Y-150312516D01*
X270750213Y-150269392D01*
X269949605Y-151070000D01*
X270750213Y-151870608D01*
X270900560Y-151827484D01*
X270900560Y-151832000D01*
X270944838Y-152067317D01*
X271083910Y-152283441D01*
X271296110Y-152428431D01*
X271548000Y-152479440D01*
X273072000Y-152479440D01*
X273307317Y-152435162D01*
X273523441Y-152296090D01*
X273668431Y-152083890D01*
X273719440Y-151832000D01*
X273719440Y-150308000D01*
X273675162Y-150072683D01*
X273536090Y-149856559D01*
X273323890Y-149711569D01*
X273173600Y-149681135D01*
X273173600Y-146217714D01*
X273367715Y-146023600D01*
X274871592Y-146023600D01*
X274932391Y-146048846D01*
X275286057Y-146049154D01*
X275612920Y-145914097D01*
X275656092Y-145871000D01*
X276120000Y-145871000D01*
X276392088Y-145816878D01*
X276622753Y-145662753D01*
X279127500Y-143158006D01*
X280222247Y-144252753D01*
X280452912Y-144406878D01*
X280725000Y-144461000D01*
X281878620Y-144461000D01*
X281920764Y-144503218D01*
X282247391Y-144638846D01*
X282601057Y-144639154D01*
X282927920Y-144504097D01*
X283178218Y-144254236D01*
X283179000Y-144252353D01*
X283179000Y-144639454D01*
X283159000Y-144740000D01*
X283159000Y-147495494D01*
X281498596Y-149155898D01*
X281438943Y-149155846D01*
X281112080Y-149290903D01*
X280861782Y-149540764D01*
X280726154Y-149867391D01*
X280725846Y-150221057D01*
X280860903Y-150547920D01*
X280904000Y-150591092D01*
X280904000Y-151821000D01*
X280958122Y-152093088D01*
X281112247Y-152323753D01*
X284921247Y-156132753D01*
X285151912Y-156286878D01*
X285424000Y-156341000D01*
X287213620Y-156341000D01*
X287255764Y-156383218D01*
X287582391Y-156518846D01*
X287936057Y-156519154D01*
X288262920Y-156384097D01*
X288306092Y-156341000D01*
X294720000Y-156341000D01*
X294992088Y-156286878D01*
X295222753Y-156132753D01*
X295843442Y-155512064D01*
X295855910Y-155531441D01*
X296068110Y-155676431D01*
X296320000Y-155727440D01*
X298020000Y-155727440D01*
X298255317Y-155683162D01*
X298471441Y-155544090D01*
X298616431Y-155331890D01*
X298630086Y-155264459D01*
X298659946Y-155309147D01*
X299141715Y-155631054D01*
X299710000Y-155744093D01*
X300278285Y-155631054D01*
X300760054Y-155309147D01*
X300980000Y-154979974D01*
X301199946Y-155309147D01*
X301681715Y-155631054D01*
X302250000Y-155744093D01*
X302818285Y-155631054D01*
X303300054Y-155309147D01*
X303520000Y-154979974D01*
X303739946Y-155309147D01*
X304221715Y-155631054D01*
X304790000Y-155744093D01*
X305358285Y-155631054D01*
X305840054Y-155309147D01*
X306060000Y-154979974D01*
X306279946Y-155309147D01*
X306761715Y-155631054D01*
X307330000Y-155744093D01*
X307898285Y-155631054D01*
X308380054Y-155309147D01*
X308600000Y-154979974D01*
X308819946Y-155309147D01*
X309301715Y-155631054D01*
X309870000Y-155744093D01*
X310438285Y-155631054D01*
X310920054Y-155309147D01*
X311140000Y-154979974D01*
X311359946Y-155309147D01*
X311841715Y-155631054D01*
X312410000Y-155744093D01*
X312978285Y-155631054D01*
X313460054Y-155309147D01*
X313680000Y-154979974D01*
X313899946Y-155309147D01*
X314381715Y-155631054D01*
X314950000Y-155744093D01*
X315518285Y-155631054D01*
X316000054Y-155309147D01*
X316321961Y-154827378D01*
X316435000Y-154259093D01*
X316435000Y-154200907D01*
X316321961Y-153632622D01*
X316000054Y-153150853D01*
X315530997Y-152837440D01*
X315780000Y-152837440D01*
X316015317Y-152793162D01*
X316231441Y-152654090D01*
X316376431Y-152441890D01*
X316427440Y-152190000D01*
X316427440Y-150490000D01*
X316383162Y-150254683D01*
X316244090Y-150038559D01*
X316031890Y-149893569D01*
X315780000Y-149842560D01*
X314080000Y-149842560D01*
X313844683Y-149886838D01*
X313628559Y-150025910D01*
X313483569Y-150238110D01*
X313469914Y-150305541D01*
X313440054Y-150260853D01*
X312958285Y-149938946D01*
X312390000Y-149825907D01*
X311821715Y-149938946D01*
X311339946Y-150260853D01*
X311120000Y-150590026D01*
X310900054Y-150260853D01*
X310418285Y-149938946D01*
X309850000Y-149825907D01*
X309281715Y-149938946D01*
X308799946Y-150260853D01*
X308580000Y-150590026D01*
X308360054Y-150260853D01*
X307878285Y-149938946D01*
X307310000Y-149825907D01*
X306741715Y-149938946D01*
X306259946Y-150260853D01*
X306040000Y-150590026D01*
X305820054Y-150260853D01*
X305338285Y-149938946D01*
X304770000Y-149825907D01*
X304201715Y-149938946D01*
X303719946Y-150260853D01*
X303500000Y-150590026D01*
X303280054Y-150260853D01*
X302798285Y-149938946D01*
X302230000Y-149825907D01*
X301661715Y-149938946D01*
X301179946Y-150260853D01*
X300960000Y-150590026D01*
X300740054Y-150260853D01*
X300258285Y-149938946D01*
X299690000Y-149825907D01*
X299121715Y-149938946D01*
X298639946Y-150260853D01*
X298420000Y-150590026D01*
X298200054Y-150260853D01*
X297718285Y-149938946D01*
X297150000Y-149825907D01*
X296581715Y-149938946D01*
X296099946Y-150260853D01*
X295778039Y-150742622D01*
X295665000Y-151310907D01*
X295665000Y-151369093D01*
X295778039Y-151937378D01*
X296099946Y-152419147D01*
X296569003Y-152732560D01*
X296320000Y-152732560D01*
X296084683Y-152776838D01*
X295868559Y-152915910D01*
X295861600Y-152926094D01*
X294989102Y-152053596D01*
X294989154Y-151993943D01*
X294854097Y-151667080D01*
X294604236Y-151416782D01*
X294277609Y-151281154D01*
X293923943Y-151280846D01*
X293597080Y-151415903D01*
X293469133Y-151543627D01*
X289579032Y-147653526D01*
X289579154Y-147513943D01*
X289444097Y-147187080D01*
X289194236Y-146936782D01*
X288867609Y-146801154D01*
X288513943Y-146800846D01*
X288187080Y-146935903D01*
X287936782Y-147185764D01*
X287801154Y-147512391D01*
X287800846Y-147866057D01*
X287935903Y-148192920D01*
X288185764Y-148443218D01*
X288479812Y-148565318D01*
X292950898Y-153036404D01*
X292950846Y-153096057D01*
X293085903Y-153422920D01*
X293335764Y-153673218D01*
X293662391Y-153808846D01*
X294016057Y-153809154D01*
X294342920Y-153674097D01*
X294470867Y-153546373D01*
X294949000Y-154024506D01*
X294949000Y-154395494D01*
X294425494Y-154919000D01*
X288306380Y-154919000D01*
X288264236Y-154876782D01*
X287937609Y-154741154D01*
X287583943Y-154740846D01*
X287257080Y-154875903D01*
X287213908Y-154919000D01*
X285718506Y-154919000D01*
X282326000Y-151526494D01*
X282326000Y-150591380D01*
X282368218Y-150549236D01*
X282503846Y-150222609D01*
X282503899Y-150161607D01*
X284219000Y-148446506D01*
X284219000Y-148823620D01*
X284176782Y-148865764D01*
X284041154Y-149192391D01*
X284040846Y-149546057D01*
X284175903Y-149872920D01*
X284425764Y-150123218D01*
X284752391Y-150258846D01*
X285106057Y-150259154D01*
X285432920Y-150124097D01*
X285683218Y-149874236D01*
X285767446Y-149671393D01*
X286002920Y-149574097D01*
X286253218Y-149324236D01*
X286366650Y-149051062D01*
X286552920Y-148974097D01*
X286803218Y-148724236D01*
X286879493Y-148540547D01*
X287112920Y-148444097D01*
X287363218Y-148194236D01*
X287498846Y-147867609D01*
X287499154Y-147513943D01*
X287364097Y-147187080D01*
X287321000Y-147143908D01*
X287321000Y-145842002D01*
X287602391Y-145958846D01*
X287956057Y-145959154D01*
X288282920Y-145824097D01*
X288533218Y-145574236D01*
X288668846Y-145247609D01*
X288668899Y-145186607D01*
X290564506Y-143291000D01*
X293663620Y-143291000D01*
X293705764Y-143333218D01*
X294032391Y-143468846D01*
X294386057Y-143469154D01*
X294712920Y-143334097D01*
X294963218Y-143084236D01*
X295098846Y-142757609D01*
X295098972Y-142612498D01*
X295312920Y-142524097D01*
X295563218Y-142274236D01*
X295698846Y-141947609D01*
X295698899Y-141886607D01*
X296132753Y-141452753D01*
X296242418Y-141288627D01*
X296469946Y-141629147D01*
X296939003Y-141942560D01*
X296690000Y-141942560D01*
X296454683Y-141986838D01*
X296238559Y-142125910D01*
X296093569Y-142338110D01*
X296042560Y-142590000D01*
X296042560Y-144290000D01*
X296086838Y-144525317D01*
X296225910Y-144741441D01*
X296438110Y-144886431D01*
X296690000Y-144937440D01*
X298390000Y-144937440D01*
X298625317Y-144893162D01*
X298841441Y-144754090D01*
X298986431Y-144541890D01*
X299000086Y-144474459D01*
X299029946Y-144519147D01*
X299511715Y-144841054D01*
X300080000Y-144954093D01*
X300648285Y-144841054D01*
X301130054Y-144519147D01*
X301350000Y-144189974D01*
X301569946Y-144519147D01*
X302051715Y-144841054D01*
X302620000Y-144954093D01*
X303188285Y-144841054D01*
X303670054Y-144519147D01*
X303890000Y-144189974D01*
X304109946Y-144519147D01*
X304591715Y-144841054D01*
X305160000Y-144954093D01*
X305728285Y-144841054D01*
X306210054Y-144519147D01*
X306430000Y-144189974D01*
X306649946Y-144519147D01*
X307131715Y-144841054D01*
X307700000Y-144954093D01*
X308268285Y-144841054D01*
X308750054Y-144519147D01*
X308970000Y-144189974D01*
X309189946Y-144519147D01*
X309671715Y-144841054D01*
X310240000Y-144954093D01*
X310808285Y-144841054D01*
X311290054Y-144519147D01*
X311510000Y-144189974D01*
X311729946Y-144519147D01*
X312211715Y-144841054D01*
X312780000Y-144954093D01*
X313348285Y-144841054D01*
X313830054Y-144519147D01*
X314050000Y-144189974D01*
X314269946Y-144519147D01*
X314751715Y-144841054D01*
X315320000Y-144954093D01*
X315888285Y-144841054D01*
X316370054Y-144519147D01*
X316691961Y-144037378D01*
X316805000Y-143469093D01*
X316805000Y-143410907D01*
X316691961Y-142842622D01*
X316370054Y-142360853D01*
X315900997Y-142047440D01*
X316150000Y-142047440D01*
X316385317Y-142003162D01*
X316601441Y-141864090D01*
X316746431Y-141651890D01*
X316797440Y-141400000D01*
X316797440Y-139700000D01*
X316753162Y-139464683D01*
X316614090Y-139248559D01*
X316401890Y-139103569D01*
X316150000Y-139052560D01*
X314450000Y-139052560D01*
X314214683Y-139096838D01*
X313998559Y-139235910D01*
X313853569Y-139448110D01*
X313839914Y-139515541D01*
X313810054Y-139470853D01*
X313328285Y-139148946D01*
X312760000Y-139035907D01*
X312191715Y-139148946D01*
X311709946Y-139470853D01*
X311490000Y-139800026D01*
X311270054Y-139470853D01*
X310788285Y-139148946D01*
X310220000Y-139035907D01*
X309651715Y-139148946D01*
X309169946Y-139470853D01*
X308950000Y-139800026D01*
X308730054Y-139470853D01*
X308248285Y-139148946D01*
X307680000Y-139035907D01*
X307111715Y-139148946D01*
X306629946Y-139470853D01*
X306410000Y-139800026D01*
X306190054Y-139470853D01*
X305708285Y-139148946D01*
X305140000Y-139035907D01*
X304571715Y-139148946D01*
X304089946Y-139470853D01*
X303870000Y-139800026D01*
X303650054Y-139470853D01*
X303168285Y-139148946D01*
X302600000Y-139035907D01*
X302031715Y-139148946D01*
X301549946Y-139470853D01*
X301330000Y-139800026D01*
X301110054Y-139470853D01*
X300628285Y-139148946D01*
X300060000Y-139035907D01*
X299491715Y-139148946D01*
X299009946Y-139470853D01*
X298790000Y-139800026D01*
X298570054Y-139470853D01*
X298088285Y-139148946D01*
X297520000Y-139035907D01*
X296951715Y-139148946D01*
X296469946Y-139470853D01*
X296341000Y-139663835D01*
X296341000Y-134077440D01*
X297970000Y-134077440D01*
X298205317Y-134033162D01*
X298421441Y-133894090D01*
X298566431Y-133681890D01*
X298580086Y-133614459D01*
X298609946Y-133659147D01*
X299091715Y-133981054D01*
X299660000Y-134094093D01*
X300228285Y-133981054D01*
X300710054Y-133659147D01*
X300930000Y-133329974D01*
X301149946Y-133659147D01*
X301631715Y-133981054D01*
X302200000Y-134094093D01*
X302768285Y-133981054D01*
X303250054Y-133659147D01*
X303470000Y-133329974D01*
X303689946Y-133659147D01*
X304171715Y-133981054D01*
X304740000Y-134094093D01*
X305308285Y-133981054D01*
X305790054Y-133659147D01*
X306010000Y-133329974D01*
X306229946Y-133659147D01*
X306711715Y-133981054D01*
X307280000Y-134094093D01*
X307848285Y-133981054D01*
X308330054Y-133659147D01*
X308550000Y-133329974D01*
X308769946Y-133659147D01*
X309251715Y-133981054D01*
X309820000Y-134094093D01*
X310388285Y-133981054D01*
X310870054Y-133659147D01*
X311090000Y-133329974D01*
X311309946Y-133659147D01*
X311791715Y-133981054D01*
X312360000Y-134094093D01*
X312928285Y-133981054D01*
X313410054Y-133659147D01*
X313630000Y-133329974D01*
X313849946Y-133659147D01*
X314331715Y-133981054D01*
X314900000Y-134094093D01*
X315468285Y-133981054D01*
X315950054Y-133659147D01*
X316271961Y-133177378D01*
X316385000Y-132609093D01*
X316385000Y-132550907D01*
X316271961Y-131982622D01*
X315950054Y-131500853D01*
X315480997Y-131187440D01*
X315730000Y-131187440D01*
X315965317Y-131143162D01*
X316181441Y-131004090D01*
X316326431Y-130791890D01*
X316377440Y-130540000D01*
X316377440Y-128840000D01*
X316333162Y-128604683D01*
X316194090Y-128388559D01*
X315981890Y-128243569D01*
X315730000Y-128192560D01*
X314030000Y-128192560D01*
X313794683Y-128236838D01*
X313578559Y-128375910D01*
X313433569Y-128588110D01*
X313419914Y-128655541D01*
X313390054Y-128610853D01*
X312908285Y-128288946D01*
X312340000Y-128175907D01*
X311771715Y-128288946D01*
X311289946Y-128610853D01*
X311070000Y-128940026D01*
X310850054Y-128610853D01*
X310368285Y-128288946D01*
X309800000Y-128175907D01*
X309231715Y-128288946D01*
X308749946Y-128610853D01*
X308530000Y-128940026D01*
X308310054Y-128610853D01*
X307828285Y-128288946D01*
X307260000Y-128175907D01*
X306691715Y-128288946D01*
X306209946Y-128610853D01*
X305990000Y-128940026D01*
X305770054Y-128610853D01*
X305288285Y-128288946D01*
X304720000Y-128175907D01*
X304151715Y-128288946D01*
X303669946Y-128610853D01*
X303450000Y-128940026D01*
X303230054Y-128610853D01*
X302748285Y-128288946D01*
X302180000Y-128175907D01*
X301611715Y-128288946D01*
X301129946Y-128610853D01*
X300910000Y-128940026D01*
X300690054Y-128610853D01*
X300208285Y-128288946D01*
X299640000Y-128175907D01*
X299071715Y-128288946D01*
X298589946Y-128610853D01*
X298370000Y-128940026D01*
X298150054Y-128610853D01*
X297668285Y-128288946D01*
X297100000Y-128175907D01*
X296531715Y-128288946D01*
X296049946Y-128610853D01*
X295728039Y-129092622D01*
X295615000Y-129660907D01*
X295615000Y-129719093D01*
X295728039Y-130287378D01*
X296049946Y-130769147D01*
X296519003Y-131082560D01*
X296270000Y-131082560D01*
X296222461Y-131091505D01*
X296132753Y-130957247D01*
X295582753Y-130407247D01*
X295352088Y-130253122D01*
X295080000Y-130199000D01*
X294936380Y-130199000D01*
X294894236Y-130156782D01*
X294567609Y-130021154D01*
X294213943Y-130020846D01*
X293982134Y-130116628D01*
X293562753Y-129697247D01*
X293332088Y-129543122D01*
X293060000Y-129489000D01*
X289910000Y-129489000D01*
X289637912Y-129543122D01*
X289407247Y-129697247D01*
X287831000Y-131273494D01*
X287831000Y-129870000D01*
X287776878Y-129597912D01*
X287622753Y-129367247D01*
X287352753Y-129097247D01*
X287262343Y-129036837D01*
X287142753Y-128917247D01*
X286912088Y-128763122D01*
X286640000Y-128709000D01*
X285800000Y-128709000D01*
X285527912Y-128763122D01*
X285297247Y-128917247D01*
X284697247Y-129517247D01*
X284543122Y-129747912D01*
X284489000Y-130020000D01*
X284489000Y-130805494D01*
X283817247Y-131477247D01*
X283663122Y-131707912D01*
X283609000Y-131980000D01*
X283609000Y-132495494D01*
X283597247Y-132507247D01*
X283443122Y-132737912D01*
X283389000Y-133010000D01*
X283389000Y-133325494D01*
X283083596Y-133630898D01*
X283023943Y-133630846D01*
X282697080Y-133765903D01*
X282446782Y-134015764D01*
X282311154Y-134342391D01*
X282310846Y-134696057D01*
X282445903Y-135022920D01*
X282489000Y-135066092D01*
X282489000Y-136470460D01*
X282409097Y-136277080D01*
X282159236Y-136026782D01*
X281832609Y-135891154D01*
X281478943Y-135890846D01*
X281152080Y-136025903D01*
X281031372Y-136146400D01*
X275983600Y-136146400D01*
X275983600Y-131218408D01*
X276008846Y-131157609D01*
X276009154Y-130803943D01*
X275983600Y-130742098D01*
X275983600Y-129990000D01*
X275921522Y-129677913D01*
X275917862Y-129659514D01*
X275730657Y-129379342D01*
X275359236Y-129007922D01*
X275334097Y-128947080D01*
X275084236Y-128696782D01*
X274757609Y-128561154D01*
X274403943Y-128560846D01*
X274077080Y-128695903D01*
X273826782Y-128945764D01*
X273691154Y-129272391D01*
X273690846Y-129626057D01*
X273825903Y-129952920D01*
X274075764Y-130203218D01*
X274137566Y-130228881D01*
X274256400Y-130347715D01*
X274256400Y-130741592D01*
X274231154Y-130802391D01*
X274230846Y-131156057D01*
X274256400Y-131217902D01*
X274256400Y-131306157D01*
X274027609Y-131211154D01*
X273673943Y-131210846D01*
X273347080Y-131345903D01*
X273096782Y-131595764D01*
X272961154Y-131922391D01*
X272961101Y-131983393D01*
X272855494Y-132089000D01*
X272640381Y-132089000D01*
X272641035Y-132088553D01*
X272668315Y-132046159D01*
X272677000Y-132000000D01*
X272677000Y-126185000D01*
X283244346Y-126185000D01*
X283046371Y-126382630D01*
G36*
X284539000Y-134725331D02*
X284511154Y-134792391D01*
X284510846Y-135146057D01*
X284645903Y-135472920D01*
X284689000Y-135516092D01*
X284689000Y-141615494D01*
X284427247Y-141877247D01*
X284273122Y-142107912D01*
X284219000Y-142380000D01*
X284219000Y-143173494D01*
X282731000Y-141685494D01*
X282731000Y-139774506D01*
X283702753Y-138802753D01*
X283856878Y-138572088D01*
X283911000Y-138300000D01*
X283911000Y-135066380D01*
X283953218Y-135024236D01*
X284088846Y-134697609D01*
X284088899Y-134636607D01*
X284539000Y-134186506D01*
X284539000Y-134725331D01*
X284539000Y-134725331D01*
G37*
X284539000Y-134725331D02*
X284511154Y-134792391D01*
X284510846Y-135146057D01*
X284645903Y-135472920D01*
X284689000Y-135516092D01*
X284689000Y-141615494D01*
X284427247Y-141877247D01*
X284273122Y-142107912D01*
X284219000Y-142380000D01*
X284219000Y-143173494D01*
X282731000Y-141685494D01*
X282731000Y-139774506D01*
X283702753Y-138802753D01*
X283856878Y-138572088D01*
X283911000Y-138300000D01*
X283911000Y-135066380D01*
X283953218Y-135024236D01*
X284088846Y-134697609D01*
X284088899Y-134636607D01*
X284539000Y-134186506D01*
X284539000Y-134725331D01*
G36*
X294919000Y-131754506D02*
X294919000Y-140655494D01*
X294693596Y-140880898D01*
X294633943Y-140880846D01*
X294402134Y-140976628D01*
X293982753Y-140557247D01*
X293752088Y-140403122D01*
X293480000Y-140349000D01*
X290330000Y-140349000D01*
X290057912Y-140403122D01*
X289827247Y-140557247D01*
X288081000Y-142303494D01*
X288081000Y-135489097D01*
X288146057Y-135489154D01*
X288472920Y-135354097D01*
X288723218Y-135104236D01*
X288858846Y-134777609D01*
X288858899Y-134716607D01*
X291374506Y-132201000D01*
X293293620Y-132201000D01*
X293335764Y-132243218D01*
X293662391Y-132378846D01*
X294016057Y-132379154D01*
X294342920Y-132244097D01*
X294593218Y-131994236D01*
X294696626Y-131745204D01*
X294847400Y-131682906D01*
X294919000Y-131754506D01*
X294919000Y-131754506D01*
G37*
X294919000Y-131754506D02*
X294919000Y-140655494D01*
X294693596Y-140880898D01*
X294633943Y-140880846D01*
X294402134Y-140976628D01*
X293982753Y-140557247D01*
X293752088Y-140403122D01*
X293480000Y-140349000D01*
X290330000Y-140349000D01*
X290057912Y-140403122D01*
X289827247Y-140557247D01*
X288081000Y-142303494D01*
X288081000Y-135489097D01*
X288146057Y-135489154D01*
X288472920Y-135354097D01*
X288723218Y-135104236D01*
X288858846Y-134777609D01*
X288858899Y-134716607D01*
X291374506Y-132201000D01*
X293293620Y-132201000D01*
X293335764Y-132243218D01*
X293662391Y-132378846D01*
X294016057Y-132379154D01*
X294342920Y-132244097D01*
X294593218Y-131994236D01*
X294696626Y-131745204D01*
X294847400Y-131682906D01*
X294919000Y-131754506D01*
M02*
