G04 #@! TF.FileFunction,Copper,L1,Top,Signal*
%FSLAX46Y46*%
G04 Gerber Fmt 4.6, Leading zero omitted, Abs format (unit mm)*
G04 Created by KiCad (PCBNEW 4.0.6) date 06/08/18 16:06:19*
%MOMM*%
%LPD*%
G01*
G04 APERTURE LIST*
%ADD10C,0.150000*%
%ADD11R,1.524000X1.524000*%
%ADD12C,1.524000*%
%ADD13R,1.700000X1.700000*%
%ADD14O,1.700000X1.700000*%
%ADD15R,0.398780X0.599440*%
%ADD16R,0.250000X0.700000*%
%ADD17R,0.700000X0.250000*%
%ADD18R,1.725000X1.725000*%
%ADD19R,0.650000X0.400000*%
%ADD20R,0.599440X0.398780*%
%ADD21R,0.800000X0.800000*%
%ADD22R,0.600000X1.100000*%
%ADD23R,1.143000X0.635000*%
%ADD24R,0.700000X0.300000*%
%ADD25R,0.600000X0.600000*%
%ADD26R,0.635000X1.143000*%
%ADD27R,0.900000X0.800000*%
%ADD28R,0.800000X1.600000*%
%ADD29R,0.200000X0.800000*%
%ADD30R,0.800000X0.200000*%
%ADD31R,1.112500X1.112500*%
%ADD32R,0.650000X0.300000*%
%ADD33R,0.775000X1.240000*%
%ADD34R,1.100000X0.610000*%
%ADD35O,0.300000X0.750000*%
%ADD36O,0.750000X0.300000*%
%ADD37R,0.900000X0.900000*%
%ADD38C,0.508000*%
%ADD39C,0.152000*%
%ADD40C,0.457200*%
%ADD41C,0.460000*%
%ADD42C,0.229000*%
%ADD43C,0.152400*%
G04 APERTURE END LIST*
D10*
D11*
X314120000Y-136510000D03*
D12*
X316660000Y-136510000D03*
D13*
X315300000Y-140550000D03*
D14*
X312760000Y-140550000D03*
X310220000Y-140550000D03*
X307680000Y-140550000D03*
X305140000Y-140550000D03*
X302600000Y-140550000D03*
X300060000Y-140550000D03*
X297520000Y-140550000D03*
D15*
X294540420Y-140870000D03*
X295439580Y-140870000D03*
D13*
X297540000Y-143440000D03*
D14*
X300080000Y-143440000D03*
X302620000Y-143440000D03*
X305160000Y-143440000D03*
X307700000Y-143440000D03*
X310240000Y-143440000D03*
X312780000Y-143440000D03*
X315320000Y-143440000D03*
D16*
X292580000Y-139680000D03*
X292080000Y-139680000D03*
X291580000Y-139680000D03*
X291080000Y-139680000D03*
X290580000Y-139680000D03*
X290080000Y-139680000D03*
X289580000Y-139680000D03*
X289080000Y-139680000D03*
D17*
X288430000Y-140330000D03*
X288430000Y-140830000D03*
X288430000Y-141330000D03*
X288430000Y-141830000D03*
X288430000Y-142330000D03*
X288430000Y-142830000D03*
X288430000Y-143330000D03*
X288430000Y-143830000D03*
D16*
X289080000Y-144480000D03*
X289580000Y-144480000D03*
X290080000Y-144480000D03*
X290580000Y-144480000D03*
X291080000Y-144480000D03*
X291580000Y-144480000D03*
X292080000Y-144480000D03*
X292580000Y-144480000D03*
D17*
X293230000Y-143830000D03*
X293230000Y-143330000D03*
X293230000Y-142830000D03*
X293230000Y-142330000D03*
X293230000Y-141830000D03*
X293230000Y-141330000D03*
X293230000Y-140830000D03*
X293230000Y-140330000D03*
D18*
X289967500Y-142942500D03*
X291692500Y-142942500D03*
X289967500Y-141217500D03*
X291692500Y-141217500D03*
D16*
X292210000Y-150470000D03*
X291710000Y-150470000D03*
X291210000Y-150470000D03*
X290710000Y-150470000D03*
X290210000Y-150470000D03*
X289710000Y-150470000D03*
X289210000Y-150470000D03*
X288710000Y-150470000D03*
D17*
X288060000Y-151120000D03*
X288060000Y-151620000D03*
X288060000Y-152120000D03*
X288060000Y-152620000D03*
X288060000Y-153120000D03*
X288060000Y-153620000D03*
X288060000Y-154120000D03*
X288060000Y-154620000D03*
D16*
X288710000Y-155270000D03*
X289210000Y-155270000D03*
X289710000Y-155270000D03*
X290210000Y-155270000D03*
X290710000Y-155270000D03*
X291210000Y-155270000D03*
X291710000Y-155270000D03*
X292210000Y-155270000D03*
D17*
X292860000Y-154620000D03*
X292860000Y-154120000D03*
X292860000Y-153620000D03*
X292860000Y-153120000D03*
X292860000Y-152620000D03*
X292860000Y-152120000D03*
X292860000Y-151620000D03*
X292860000Y-151120000D03*
D18*
X289597500Y-153732500D03*
X291322500Y-153732500D03*
X289597500Y-152007500D03*
X291322500Y-152007500D03*
D13*
X297170000Y-154230000D03*
D14*
X299710000Y-154230000D03*
X302250000Y-154230000D03*
X304790000Y-154230000D03*
X307330000Y-154230000D03*
X309870000Y-154230000D03*
X312410000Y-154230000D03*
X314950000Y-154230000D03*
D15*
X294170420Y-151660000D03*
X295069580Y-151660000D03*
D13*
X314930000Y-151340000D03*
D14*
X312390000Y-151340000D03*
X309850000Y-151340000D03*
X307310000Y-151340000D03*
X304770000Y-151340000D03*
X302230000Y-151340000D03*
X299690000Y-151340000D03*
X297150000Y-151340000D03*
D19*
X282590000Y-150960000D03*
X282590000Y-149660000D03*
X280690000Y-150310000D03*
X282590000Y-150310000D03*
X280690000Y-149660000D03*
X280690000Y-150960000D03*
D15*
X283449580Y-137720000D03*
X282550420Y-137720000D03*
X283240420Y-135170000D03*
X284139580Y-135170000D03*
D13*
X314880000Y-129690000D03*
D14*
X312340000Y-129690000D03*
X309800000Y-129690000D03*
X307260000Y-129690000D03*
X304720000Y-129690000D03*
X302180000Y-129690000D03*
X299640000Y-129690000D03*
X297100000Y-129690000D03*
D15*
X294120420Y-130010000D03*
X295019580Y-130010000D03*
D11*
X275590000Y-150500000D03*
D12*
X275590000Y-147960000D03*
D20*
X268000000Y-146209580D03*
X268000000Y-145310420D03*
D21*
X274285000Y-144800000D03*
X272685000Y-144800000D03*
D11*
X286770000Y-127175000D03*
D12*
X284230000Y-127175000D03*
D20*
X272840000Y-146255420D03*
X272840000Y-147154580D03*
D15*
X269490420Y-148205000D03*
X270389580Y-148205000D03*
D22*
X276075000Y-139125000D03*
X274675000Y-139125000D03*
D20*
X269575000Y-142169580D03*
X269575000Y-141270420D03*
D15*
X270374580Y-143170000D03*
X269475420Y-143170000D03*
D20*
X276530000Y-143539580D03*
X276530000Y-142640420D03*
X270675000Y-141270420D03*
X270675000Y-142169580D03*
D23*
X276690000Y-145992000D03*
X276690000Y-144468000D03*
D20*
X283140000Y-144380420D03*
X283140000Y-145279580D03*
D15*
X272525420Y-138375000D03*
X273424580Y-138375000D03*
D24*
X278326500Y-128500000D03*
D25*
X278000000Y-129112500D03*
X278000000Y-127887500D03*
D24*
X277637500Y-128500000D03*
D15*
X275729580Y-128620000D03*
X274830420Y-128620000D03*
X273150420Y-129450000D03*
X274049580Y-129450000D03*
D23*
X279290000Y-149338000D03*
X279290000Y-150862000D03*
D15*
X281210420Y-148510000D03*
X282109580Y-148510000D03*
D20*
X283830000Y-150969580D03*
X283830000Y-150070420D03*
D15*
X278610420Y-142930000D03*
X279509580Y-142930000D03*
D21*
X267925000Y-136400000D03*
X267925000Y-134800000D03*
D11*
X272385000Y-150280000D03*
D12*
X269845000Y-150280000D03*
D26*
X271117000Y-138780000D03*
X269593000Y-138780000D03*
D27*
X270800000Y-133500000D03*
X272200000Y-133500000D03*
X270800000Y-134600000D03*
X272200000Y-134600000D03*
D20*
X274890000Y-140390420D03*
X274890000Y-141289580D03*
D15*
X273424580Y-139275000D03*
X272525420Y-139275000D03*
D20*
X269800000Y-133750420D03*
X269800000Y-134649580D03*
X273200000Y-134549580D03*
X273200000Y-133650420D03*
D15*
X276899580Y-129450000D03*
X276000420Y-129450000D03*
D20*
X275910000Y-140390420D03*
X275910000Y-141289580D03*
D28*
X270745000Y-127673000D03*
X267345000Y-127673000D03*
D15*
X272849580Y-127700000D03*
X271950420Y-127700000D03*
D20*
X274000000Y-127650420D03*
X274000000Y-128549580D03*
D15*
X276049580Y-127700000D03*
X275150420Y-127700000D03*
X269730420Y-137380000D03*
X270629580Y-137380000D03*
D26*
X272142000Y-136055000D03*
X270618000Y-136055000D03*
X282428000Y-136430000D03*
X283952000Y-136430000D03*
D29*
X275600000Y-137000000D03*
X276000000Y-137000000D03*
X276400000Y-137000000D03*
X276800000Y-137000000D03*
X277200000Y-137000000D03*
X277600000Y-137000000D03*
X278000000Y-137000000D03*
X278400000Y-137000000D03*
X278800000Y-137000000D03*
X279200000Y-137000000D03*
X279600000Y-137000000D03*
X280000000Y-137000000D03*
D30*
X280800000Y-136200000D03*
X280800000Y-135800000D03*
X280800000Y-135400000D03*
X280800000Y-135000000D03*
X280800000Y-134600000D03*
X280800000Y-134200000D03*
X280800000Y-133800000D03*
X280800000Y-133400000D03*
X280800000Y-133000000D03*
X280800000Y-132600000D03*
X280800000Y-132200000D03*
X280800000Y-131800000D03*
D29*
X280000000Y-131000000D03*
X279600000Y-131000000D03*
X279200000Y-131000000D03*
X278800000Y-131000000D03*
X278400000Y-131000000D03*
X278000000Y-131000000D03*
X277600000Y-131000000D03*
X277200000Y-131000000D03*
X276800000Y-131000000D03*
X276400000Y-131000000D03*
X276000000Y-131000000D03*
X275600000Y-131000000D03*
D30*
X274800000Y-131800000D03*
X274800000Y-132200000D03*
X274800000Y-132600000D03*
X274800000Y-133000000D03*
X274800000Y-133400000D03*
X274800000Y-133800000D03*
X274800000Y-134200000D03*
X274800000Y-134600000D03*
X274800000Y-135000000D03*
X274800000Y-135400000D03*
X274800000Y-135800000D03*
X274800000Y-136200000D03*
D31*
X279468750Y-132331250D03*
X278356250Y-132331250D03*
X277243750Y-132331250D03*
X276131250Y-132331250D03*
X279468750Y-133443750D03*
X278356250Y-133443750D03*
X277243750Y-133443750D03*
X276131250Y-133443750D03*
X279468750Y-134556250D03*
X278356250Y-134556250D03*
X277243750Y-134556250D03*
X276131250Y-134556250D03*
X279468750Y-135668750D03*
X278356250Y-135668750D03*
X277243750Y-135668750D03*
X276131250Y-135668750D03*
D32*
X278410000Y-144120000D03*
X278410000Y-144620000D03*
X278410000Y-145120000D03*
X278410000Y-145620000D03*
X278410000Y-146120000D03*
X281510000Y-146120000D03*
X281510000Y-145620000D03*
X281510000Y-145120000D03*
X281510000Y-144620000D03*
X281510000Y-144120000D03*
D33*
X280347500Y-145740000D03*
X280347500Y-144500000D03*
X279572500Y-145740000D03*
X279572500Y-144500000D03*
D19*
X271850000Y-141970000D03*
X271850000Y-143270000D03*
X271850000Y-142620000D03*
X273750000Y-143270000D03*
X273750000Y-141970000D03*
D16*
X269865000Y-147105000D03*
X270365000Y-147105000D03*
X270865000Y-147105000D03*
X271365000Y-147105000D03*
X271365000Y-145255000D03*
X270865000Y-145255000D03*
X270365000Y-145255000D03*
X269865000Y-145255000D03*
D34*
X271165000Y-146180000D03*
X270065000Y-146180000D03*
D13*
X297120000Y-132580000D03*
D14*
X299660000Y-132580000D03*
X302200000Y-132580000D03*
X304740000Y-132580000D03*
X307280000Y-132580000D03*
X309820000Y-132580000D03*
X312360000Y-132580000D03*
X314900000Y-132580000D03*
D16*
X292160000Y-128820000D03*
X291660000Y-128820000D03*
X291160000Y-128820000D03*
X290660000Y-128820000D03*
X290160000Y-128820000D03*
X289660000Y-128820000D03*
X289160000Y-128820000D03*
X288660000Y-128820000D03*
D17*
X288010000Y-129470000D03*
X288010000Y-129970000D03*
X288010000Y-130470000D03*
X288010000Y-130970000D03*
X288010000Y-131470000D03*
X288010000Y-131970000D03*
X288010000Y-132470000D03*
X288010000Y-132970000D03*
D16*
X288660000Y-133620000D03*
X289160000Y-133620000D03*
X289660000Y-133620000D03*
X290160000Y-133620000D03*
X290660000Y-133620000D03*
X291160000Y-133620000D03*
X291660000Y-133620000D03*
X292160000Y-133620000D03*
D17*
X292810000Y-132970000D03*
X292810000Y-132470000D03*
X292810000Y-131970000D03*
X292810000Y-131470000D03*
X292810000Y-130970000D03*
X292810000Y-130470000D03*
X292810000Y-129970000D03*
X292810000Y-129470000D03*
D18*
X289547500Y-132082500D03*
X291272500Y-132082500D03*
X289547500Y-130357500D03*
X291272500Y-130357500D03*
D35*
X281810000Y-141965000D03*
X282310000Y-141965000D03*
X282810000Y-141965000D03*
X283310000Y-141965000D03*
D36*
X284035000Y-141240000D03*
X284035000Y-140740000D03*
X284035000Y-140240000D03*
X284035000Y-139740000D03*
D35*
X283310000Y-139015000D03*
X282810000Y-139015000D03*
X282310000Y-139015000D03*
X281810000Y-139015000D03*
D36*
X281085000Y-139740000D03*
X281085000Y-140240000D03*
X281085000Y-140740000D03*
X281085000Y-141240000D03*
D37*
X283010000Y-140040000D03*
X282110000Y-140040000D03*
X283010000Y-140940000D03*
X282110000Y-140940000D03*
D38*
X281450000Y-130860000D03*
X281475000Y-130075000D03*
X296120000Y-130860000D03*
X295640000Y-152660000D03*
X294970000Y-143300000D03*
X294600000Y-154090000D03*
X284640000Y-152640000D03*
X283870000Y-149150000D03*
X284260000Y-137710000D03*
X283010000Y-140040000D03*
X272700000Y-142670000D03*
X269180000Y-135355000D03*
X273125000Y-140250000D03*
X279110000Y-128530000D03*
X282570000Y-128270000D03*
X273150000Y-130150000D03*
X276820000Y-128420000D03*
X294550000Y-132440000D03*
X275110000Y-145160000D03*
X279100000Y-142125000D03*
X268100000Y-137300000D03*
X281655000Y-136780000D03*
X275120000Y-130980000D03*
X274640000Y-137010000D03*
X274580000Y-129450000D03*
X282425000Y-143750000D03*
X294100000Y-152170000D03*
X287760000Y-155630000D03*
X287540000Y-143850000D03*
X294810000Y-141770000D03*
X281615000Y-150045000D03*
X283200000Y-134520000D03*
X294390000Y-130910000D03*
X287120000Y-132990000D03*
X278130000Y-146850000D03*
X274410000Y-142180000D03*
X275760000Y-143480000D03*
X273915000Y-147280000D03*
X274000000Y-133625000D03*
X273800000Y-132875000D03*
X277310000Y-141530000D03*
X269570000Y-143820000D03*
X268050000Y-133325000D03*
X273850000Y-132100000D03*
X286610000Y-147690000D03*
X286430000Y-129910000D03*
X287370000Y-134070000D03*
X286050000Y-148220000D03*
X286760000Y-134370000D03*
X285700000Y-130310000D03*
X285500000Y-148820000D03*
X286080000Y-134660000D03*
X285580000Y-131590000D03*
X284930000Y-149370000D03*
X285400000Y-134970000D03*
X284940000Y-132690000D03*
X293840000Y-131490000D03*
X287970000Y-134600000D03*
X293890000Y-152930000D03*
X287170000Y-145550000D03*
X294210000Y-142580000D03*
X287780000Y-145070000D03*
D39*
X273424580Y-139275000D02*
X273600000Y-139275000D01*
X273600000Y-139275000D02*
X274000000Y-138875000D01*
X274000000Y-138875000D02*
X274000000Y-138000000D01*
X274000000Y-138000000D02*
X274275000Y-137725000D01*
X274275000Y-137725000D02*
X274875000Y-137725000D01*
X274875000Y-137725000D02*
X275600000Y-137000000D01*
X275600000Y-137000000D02*
X275600000Y-137140000D01*
X275600000Y-137000000D02*
X275550000Y-137000000D01*
X276899580Y-129450000D02*
X276899580Y-129699580D01*
X276899580Y-129699580D02*
X277200000Y-130000000D01*
X277200000Y-130000000D02*
X277200000Y-131000000D01*
D40*
X276049580Y-127700000D02*
X277800000Y-127700000D01*
X277800000Y-127700000D02*
X278000000Y-127900000D01*
D39*
X281310000Y-131000000D02*
X280000000Y-131000000D01*
X281450000Y-130860000D02*
X281310000Y-131000000D01*
X280000000Y-131000000D02*
X280000000Y-130730000D01*
X279600000Y-130400000D02*
X279600000Y-131000000D01*
X281475000Y-130075000D02*
X281400000Y-130150000D01*
X281400000Y-130150000D02*
X279850000Y-130150000D01*
X279850000Y-130150000D02*
X279600000Y-130400000D01*
D41*
X271950420Y-127700000D02*
X270772000Y-127700000D01*
X270772000Y-127700000D02*
X270745000Y-127673000D01*
D39*
X269730420Y-137380000D02*
X269730420Y-138642580D01*
X269730420Y-138642580D02*
X269593000Y-138780000D01*
X283310000Y-141965000D02*
X282810000Y-141965000D01*
X270374580Y-143170000D02*
X270374580Y-143754580D01*
X270865000Y-144245000D02*
X270865000Y-145255000D01*
X270374580Y-143754580D02*
X270865000Y-144245000D01*
X295019580Y-130010000D02*
X295270000Y-130010000D01*
X295270000Y-130010000D02*
X296120000Y-130860000D01*
X295069580Y-152580000D02*
X295560000Y-152580000D01*
X295560000Y-152580000D02*
X295640000Y-152660000D01*
D42*
X295069580Y-152580000D02*
X295069580Y-151660000D01*
D39*
X284640000Y-150510000D02*
X284640000Y-152640000D01*
X284200420Y-150070420D02*
X284640000Y-150510000D01*
X284200420Y-150070420D02*
X283830000Y-150070420D01*
X283870000Y-149150000D02*
X283830000Y-149190000D01*
X283830000Y-149190000D02*
X283830000Y-150070420D01*
D40*
X284250000Y-137720000D02*
X284260000Y-137710000D01*
X283449580Y-137720000D02*
X284250000Y-137720000D01*
D42*
X295439580Y-142830420D02*
X295439580Y-140870000D01*
X294970000Y-143300000D02*
X295439580Y-142830420D01*
X293230000Y-143830000D02*
X294440000Y-143830000D01*
X294440000Y-143830000D02*
X294970000Y-143300000D01*
D39*
X293230000Y-143830000D02*
X292580000Y-143830000D01*
X292580000Y-143830000D02*
X291692500Y-142942500D01*
X288430000Y-140330000D02*
X289080000Y-140330000D01*
X291692500Y-142942500D02*
X289967500Y-142942500D01*
X291692500Y-141217500D02*
X291692500Y-142942500D01*
X289080000Y-140330000D02*
X289967500Y-141217500D01*
X289967500Y-141217500D02*
X291692500Y-141217500D01*
X289597500Y-152007500D02*
X291322500Y-152007500D01*
X288710000Y-151120000D02*
X289597500Y-152007500D01*
D42*
X294600000Y-154090000D02*
X295069580Y-153620420D01*
D39*
X291322500Y-152007500D02*
X291322500Y-153732500D01*
X291322500Y-153732500D02*
X289597500Y-153732500D01*
X288060000Y-151120000D02*
X288710000Y-151120000D01*
X292210000Y-154620000D02*
X291322500Y-153732500D01*
X292860000Y-154620000D02*
X292210000Y-154620000D01*
D42*
X294070000Y-154620000D02*
X294600000Y-154090000D01*
X292860000Y-154620000D02*
X294070000Y-154620000D01*
X295069580Y-153620420D02*
X295069580Y-152580000D01*
X282109580Y-148510000D02*
X282109580Y-147709580D01*
X282060000Y-147660000D02*
X275890000Y-147660000D01*
X282109580Y-147709580D02*
X282060000Y-147660000D01*
X275890000Y-147660000D02*
X275590000Y-147960000D01*
D39*
X282109580Y-148510000D02*
X282109580Y-149179580D01*
X282109580Y-149179580D02*
X282590000Y-149660000D01*
X283830000Y-150070420D02*
X283480420Y-150070420D01*
X283070000Y-149660000D02*
X282590000Y-149660000D01*
X283480420Y-150070420D02*
X283070000Y-149660000D01*
X273125000Y-141175000D02*
X274775420Y-141175000D01*
X274775420Y-141175000D02*
X274890000Y-141289580D01*
X272700000Y-142670000D02*
X272700000Y-141600000D01*
X272700000Y-141600000D02*
X273125000Y-141175000D01*
X273125000Y-141175000D02*
X273125000Y-140250000D01*
X272650000Y-142620000D02*
X272700000Y-142670000D01*
X271850000Y-142620000D02*
X272650000Y-142620000D01*
X283010000Y-140940000D02*
X282110000Y-140940000D01*
X283010000Y-140040000D02*
X282110000Y-140040000D01*
X283010000Y-140940000D02*
X283010000Y-140040000D01*
X284139580Y-135170000D02*
X284139580Y-136242420D01*
X284139580Y-136242420D02*
X283952000Y-136430000D01*
X283952000Y-136430000D02*
X283449580Y-136932420D01*
X283449580Y-136932420D02*
X283449580Y-137720000D01*
X282810000Y-141965000D02*
X282810000Y-141140000D01*
X282810000Y-141140000D02*
X283010000Y-140940000D01*
X282310000Y-141965000D02*
X281810000Y-141965000D01*
X282810000Y-141965000D02*
X282310000Y-141965000D01*
X283140000Y-144380420D02*
X283140000Y-143120000D01*
X282810000Y-142790000D02*
X282810000Y-141965000D01*
X283140000Y-143120000D02*
X282810000Y-142790000D01*
X269490420Y-148205000D02*
X269490420Y-147790420D01*
X269490420Y-147790420D02*
X268000000Y-146300000D01*
X268000000Y-146300000D02*
X268000000Y-146209580D01*
X270065000Y-146180000D02*
X268029580Y-146180000D01*
X268029580Y-146180000D02*
X268000000Y-146209580D01*
D40*
X269300000Y-135475000D02*
X269180000Y-135355000D01*
X273125000Y-140250000D02*
X273100000Y-140275000D01*
D39*
X272525420Y-139275000D02*
X272525420Y-139700420D01*
X272525420Y-139700420D02*
X273100000Y-140275000D01*
X279509580Y-142930000D02*
X279870000Y-142930000D01*
X277459580Y-142640420D02*
X276530000Y-142640420D01*
X277750000Y-142350000D02*
X277459580Y-142640420D01*
X277750000Y-142325000D02*
X277750000Y-142350000D01*
X278650000Y-141425000D02*
X277750000Y-142325000D01*
X279650000Y-141425000D02*
X278650000Y-141425000D01*
X279950000Y-141725000D02*
X279650000Y-141425000D01*
X279950000Y-142850000D02*
X279950000Y-141725000D01*
X279870000Y-142930000D02*
X279950000Y-142850000D01*
X271850000Y-142620000D02*
X271125420Y-142620000D01*
X271125420Y-142620000D02*
X270675000Y-142169580D01*
X270675000Y-142169580D02*
X270675000Y-142869580D01*
X270675000Y-142869580D02*
X270374580Y-143170000D01*
X275910000Y-141289580D02*
X276085420Y-141289580D01*
X272525420Y-138375000D02*
X272525420Y-139275000D01*
X272200000Y-134600000D02*
X272185000Y-134600000D01*
X272185000Y-134600000D02*
X270730000Y-136055000D01*
X270730000Y-136055000D02*
X270618000Y-136055000D01*
X269800000Y-133750420D02*
X269434580Y-133750420D01*
X269880000Y-136055000D02*
X270618000Y-136055000D01*
X269300000Y-135475000D02*
X269880000Y-136055000D01*
X269180000Y-134005000D02*
X269180000Y-135355000D01*
X269434580Y-133750420D02*
X269180000Y-134005000D01*
D40*
X272840000Y-146255420D02*
X274715420Y-146255420D01*
X275590000Y-147130000D02*
X275590000Y-147960000D01*
X274715420Y-146255420D02*
X275590000Y-147130000D01*
D39*
X271165000Y-146180000D02*
X270065000Y-146180000D01*
X270865000Y-145255000D02*
X270865000Y-145880000D01*
X270865000Y-145880000D02*
X271165000Y-146180000D01*
X272840000Y-146255420D02*
X271240420Y-146255420D01*
X271240420Y-146255420D02*
X271165000Y-146180000D01*
X269845000Y-150280000D02*
X269845000Y-149535000D01*
X269845000Y-149535000D02*
X269490420Y-149180420D01*
X269490420Y-149180420D02*
X269490420Y-148205000D01*
X283120000Y-144360420D02*
X283140000Y-144380420D01*
X274887920Y-141287500D02*
X274890000Y-141289580D01*
X274890000Y-141289580D02*
X275910000Y-141289580D01*
X280347500Y-145740000D02*
X279572500Y-145740000D01*
X278410000Y-145120000D02*
X278952500Y-145120000D01*
X278952500Y-145120000D02*
X279572500Y-144500000D01*
X279572500Y-144500000D02*
X279572500Y-145740000D01*
X280347500Y-144500000D02*
X279572500Y-144500000D01*
X281510000Y-144620000D02*
X280467500Y-144620000D01*
X280467500Y-144620000D02*
X280347500Y-144500000D01*
X281510000Y-144620000D02*
X282900420Y-144620000D01*
X282900420Y-144620000D02*
X283140000Y-144380420D01*
X279509580Y-142930000D02*
X279509580Y-144437080D01*
X279509580Y-144437080D02*
X279572500Y-144500000D01*
D42*
X279080000Y-128500000D02*
X279110000Y-128530000D01*
X278326500Y-128500000D02*
X279080000Y-128500000D01*
D39*
X282570000Y-128270000D02*
X282585000Y-128255000D01*
X282585000Y-128255000D02*
X282570000Y-128270000D01*
X273150420Y-130149580D02*
X273150000Y-130150000D01*
X273150420Y-129450000D02*
X273150420Y-130149580D01*
X276000420Y-129450000D02*
X275660420Y-129450000D01*
X275660420Y-129450000D02*
X274830420Y-128620000D01*
D40*
X274000000Y-128549580D02*
X274760000Y-128549580D01*
X274760000Y-128549580D02*
X274830420Y-128620000D01*
D39*
X276900000Y-128500000D02*
X276820000Y-128420000D01*
X277637500Y-128500000D02*
X276900000Y-128500000D01*
X277637500Y-128500000D02*
X278326500Y-128500000D01*
D40*
X273150420Y-129450000D02*
X273150420Y-128799580D01*
X273150420Y-128799580D02*
X273400420Y-128549580D01*
X273400420Y-128549580D02*
X274000000Y-128549580D01*
D39*
X273200000Y-134549580D02*
X273449580Y-134549580D01*
X273449580Y-134549580D02*
X273900000Y-135000000D01*
X273900000Y-135000000D02*
X274800000Y-135000000D01*
X277600000Y-131000000D02*
X277600000Y-129700000D01*
X277350000Y-129450000D02*
X277350000Y-128500000D01*
X277600000Y-129700000D02*
X277350000Y-129450000D01*
X278356250Y-132331250D02*
X278356250Y-133443750D01*
X277243750Y-135668750D02*
X276131250Y-135668750D01*
X278356250Y-135668750D02*
X277243750Y-135668750D01*
X279468750Y-135668750D02*
X278356250Y-135668750D01*
X279468750Y-134556250D02*
X279468750Y-135668750D01*
X278356250Y-134556250D02*
X279468750Y-134556250D01*
X277243750Y-134556250D02*
X278356250Y-134556250D01*
X276131250Y-134556250D02*
X277243750Y-134556250D01*
X276131250Y-133443750D02*
X276131250Y-134556250D01*
X277243750Y-133443750D02*
X276131250Y-133443750D01*
X278356250Y-133443750D02*
X277243750Y-133443750D01*
X279468750Y-132331250D02*
X279468750Y-133443750D01*
X278356250Y-132331250D02*
X279468750Y-132331250D01*
X277243750Y-132331250D02*
X278356250Y-132331250D01*
X276131250Y-132331250D02*
X277243750Y-132331250D01*
X274800000Y-135000000D02*
X275687500Y-135000000D01*
X275687500Y-135000000D02*
X276131250Y-134556250D01*
X277600000Y-131000000D02*
X277600000Y-131975000D01*
X277600000Y-131975000D02*
X277243750Y-132331250D01*
X270800000Y-133500000D02*
X270050420Y-133500000D01*
X270050420Y-133500000D02*
X269800000Y-133750420D01*
X273200000Y-134549580D02*
X272250420Y-134549580D01*
X272250420Y-134549580D02*
X272200000Y-134600000D01*
D43*
X272300420Y-134549580D02*
X272200000Y-134650000D01*
D42*
X295019580Y-131970420D02*
X295019580Y-130010000D01*
X292810000Y-132970000D02*
X294020000Y-132970000D01*
X294020000Y-132970000D02*
X294550000Y-132440000D01*
D39*
X292810000Y-132970000D02*
X292160000Y-132970000D01*
X292160000Y-132970000D02*
X291272500Y-132082500D01*
X288010000Y-129470000D02*
X288660000Y-129470000D01*
X291272500Y-132082500D02*
X289547500Y-132082500D01*
X291272500Y-130357500D02*
X291272500Y-132082500D01*
D42*
X294550000Y-132440000D02*
X295019580Y-131970420D01*
D39*
X288660000Y-129470000D02*
X289547500Y-130357500D01*
X289547500Y-130357500D02*
X291272500Y-130357500D01*
X274750000Y-144800000D02*
X274285000Y-144800000D01*
X275110000Y-145160000D02*
X274750000Y-144800000D01*
X282550420Y-137720000D02*
X282550420Y-138119580D01*
X282310000Y-138360000D02*
X282310000Y-139015000D01*
X282550420Y-138119580D02*
X282310000Y-138360000D01*
X281655000Y-136780000D02*
X282078000Y-136780000D01*
X282078000Y-136780000D02*
X282428000Y-136430000D01*
X282428000Y-136430000D02*
X282428000Y-137597580D01*
X282428000Y-137597580D02*
X282550420Y-137720000D01*
X278610420Y-142930000D02*
X278610420Y-142614580D01*
X278610420Y-142614580D02*
X279100000Y-142125000D01*
X281510000Y-144120000D02*
X282080000Y-144120000D01*
D40*
X267925000Y-137125000D02*
X267925000Y-136400000D01*
X268100000Y-137300000D02*
X267925000Y-137125000D01*
D39*
X274640000Y-137010000D02*
X274215000Y-137010000D01*
X273424580Y-137800420D02*
X273424580Y-138375000D01*
X274215000Y-137010000D02*
X273424580Y-137800420D01*
X280800000Y-136200000D02*
X281075000Y-136200000D01*
X281075000Y-136200000D02*
X281655000Y-136780000D01*
X281510000Y-144120000D02*
X281610000Y-144120000D01*
X278410000Y-144120000D02*
X278410000Y-143130420D01*
X278410000Y-143130420D02*
X278610420Y-142930000D01*
X275120000Y-130980000D02*
X275140000Y-131000000D01*
X274640000Y-137010000D02*
X274660000Y-136990000D01*
X274660000Y-136990000D02*
X274800000Y-136200000D01*
X274049580Y-129450000D02*
X274580000Y-129450000D01*
X275140000Y-131000000D02*
X275600000Y-131000000D01*
X282425000Y-143750000D02*
X282450000Y-143750000D01*
X282080000Y-144120000D02*
X282450000Y-143750000D01*
X294170420Y-151660000D02*
X294170420Y-152099580D01*
X294170420Y-152099580D02*
X294100000Y-152170000D01*
X287410000Y-155270000D02*
X288060000Y-154620000D01*
X287760000Y-155630000D02*
X287400000Y-155270000D01*
X287400000Y-155270000D02*
X287410000Y-155270000D01*
X287540000Y-143850000D02*
X287560000Y-143830000D01*
X287560000Y-143830000D02*
X287600000Y-143830000D01*
X287600000Y-143830000D02*
X288430000Y-143830000D01*
X294540420Y-140870000D02*
X294540420Y-141500420D01*
X294540420Y-141500420D02*
X294810000Y-141770000D01*
X294540420Y-140870000D02*
X293270000Y-140870000D01*
X293270000Y-140870000D02*
X293230000Y-140830000D01*
X292900000Y-151660000D02*
X292860000Y-151620000D01*
X294170420Y-151660000D02*
X292900000Y-151660000D01*
X283240420Y-135170000D02*
X283240420Y-134560420D01*
X283200000Y-134520000D02*
X283240420Y-134560420D01*
X294120420Y-130640420D02*
X294390000Y-130910000D01*
X294120420Y-130010000D02*
X294120420Y-130640420D01*
X287180000Y-132970000D02*
X288010000Y-132970000D01*
X287140000Y-132970000D02*
X287180000Y-132970000D01*
X287120000Y-132990000D02*
X287140000Y-132970000D01*
X281210420Y-148510000D02*
X281210420Y-149139580D01*
X281210420Y-149139580D02*
X280690000Y-149660000D01*
X282590000Y-150310000D02*
X281880000Y-150310000D01*
X281880000Y-150310000D02*
X281615000Y-150045000D01*
X281230000Y-149660000D02*
X280690000Y-149660000D01*
X281615000Y-150045000D02*
X281230000Y-149660000D01*
X282810000Y-139015000D02*
X282810000Y-138450000D01*
X283250000Y-136680000D02*
X283250000Y-135420000D01*
X282980000Y-136950000D02*
X283250000Y-136680000D01*
X282980000Y-138280000D02*
X282980000Y-136950000D01*
X282810000Y-138450000D02*
X282980000Y-138280000D01*
X294120420Y-130010000D02*
X292850000Y-130010000D01*
X292850000Y-130010000D02*
X292810000Y-129970000D01*
X278110000Y-146830000D02*
X278110000Y-146700000D01*
X278130000Y-146850000D02*
X278110000Y-146830000D01*
X282590000Y-150960000D02*
X283820420Y-150960000D01*
X283820420Y-150960000D02*
X283830000Y-150969580D01*
X280690000Y-150960000D02*
X282590000Y-150960000D01*
X279290000Y-150862000D02*
X280592000Y-150862000D01*
X280592000Y-150862000D02*
X280690000Y-150960000D01*
X275590000Y-150500000D02*
X276980000Y-150500000D01*
X276980000Y-150500000D02*
X277342000Y-150862000D01*
X277342000Y-150862000D02*
X279290000Y-150862000D01*
X278730000Y-146700000D02*
X278730000Y-146440000D01*
X278730000Y-146440000D02*
X278410000Y-146120000D01*
X275760000Y-143480000D02*
X275760000Y-146460000D01*
X275760000Y-146460000D02*
X276000000Y-146700000D01*
X277640000Y-146700000D02*
X278110000Y-146700000D01*
X276000000Y-146700000D02*
X277640000Y-146700000D01*
X278110000Y-146700000D02*
X278730000Y-146700000D01*
X278730000Y-146700000D02*
X278920000Y-146700000D01*
X276530000Y-143539580D02*
X275819580Y-143539580D01*
X274200000Y-141970000D02*
X273750000Y-141970000D01*
X274410000Y-142180000D02*
X274200000Y-141970000D01*
X275819580Y-143539580D02*
X275760000Y-143480000D01*
D42*
X273789580Y-147154580D02*
X272840000Y-147154580D01*
X273915000Y-147280000D02*
X273789580Y-147154580D01*
D39*
X271365000Y-147105000D02*
X272790420Y-147105000D01*
X272790420Y-147105000D02*
X272840000Y-147154580D01*
X270865000Y-147105000D02*
X271365000Y-147105000D01*
X276530000Y-143539580D02*
X276720420Y-143539580D01*
X276527500Y-143537080D02*
X276530000Y-143539580D01*
X283140000Y-145279580D02*
X282510420Y-145279580D01*
X282170000Y-145620000D02*
X281510000Y-145620000D01*
X282510420Y-145279580D02*
X282170000Y-145620000D01*
X278410000Y-146120000D02*
X278410000Y-146190000D01*
X278920000Y-146700000D02*
X280930000Y-146700000D01*
X280930000Y-146700000D02*
X281510000Y-146120000D01*
X281510000Y-145620000D02*
X281510000Y-146120000D01*
X281510000Y-145120000D02*
X281510000Y-145620000D01*
D41*
X274000000Y-127699580D02*
X272850000Y-127699580D01*
X272850000Y-127699580D02*
X272849580Y-127700000D01*
X275150420Y-127700000D02*
X274000420Y-127700000D01*
X274000420Y-127700000D02*
X274000000Y-127699580D01*
D39*
X280690000Y-150310000D02*
X280262000Y-150310000D01*
X280262000Y-150310000D02*
X279290000Y-149338000D01*
X274800000Y-133400000D02*
X274225000Y-133400000D01*
X274225000Y-133400000D02*
X274000000Y-133625000D01*
X270629580Y-137380000D02*
X270817000Y-137380000D01*
X270817000Y-137380000D02*
X272142000Y-136055000D01*
X272142000Y-136055000D02*
X272705000Y-136055000D01*
X273360000Y-135400000D02*
X274800000Y-135400000D01*
X272705000Y-136055000D02*
X273360000Y-135400000D01*
X275000000Y-130040000D02*
X274720163Y-130049375D01*
X274720163Y-130049375D02*
X272760000Y-132040000D01*
X272760000Y-132040000D02*
X272770000Y-132030000D01*
X272770000Y-132030000D02*
X272455505Y-132345429D01*
X272455505Y-132345429D02*
X271600000Y-132830000D01*
X271600000Y-132830000D02*
X271490000Y-132940000D01*
X271490000Y-132940000D02*
X271490000Y-134310000D01*
X271490000Y-134310000D02*
X271200000Y-134600000D01*
X276400000Y-131000000D02*
X276400000Y-130330490D01*
X275395598Y-130045598D02*
X275000000Y-130040000D01*
X276115108Y-130045598D02*
X275395598Y-130045598D01*
X276400000Y-130330490D02*
X276115108Y-130045598D01*
X271200000Y-134600000D02*
X270800000Y-134600000D01*
X269800000Y-134649580D02*
X270750420Y-134649580D01*
X270800000Y-134600000D02*
X270950000Y-134600000D01*
X270750420Y-134649580D02*
X270800000Y-134600000D01*
D43*
X271050000Y-134650000D02*
X270800000Y-134650000D01*
X270799580Y-134649580D02*
X270800000Y-134650000D01*
D39*
X276000000Y-131000000D02*
X276000000Y-130450000D01*
X276000000Y-130450000D02*
X275900000Y-130350000D01*
X275900000Y-130350000D02*
X274900000Y-130350000D01*
X274900000Y-130350000D02*
X273200000Y-132050000D01*
X273200000Y-132050000D02*
X273200000Y-133650420D01*
X272200000Y-133500000D02*
X273049580Y-133500000D01*
X273049580Y-133500000D02*
X273200000Y-133650420D01*
X274675000Y-139125000D02*
X274675000Y-138350000D01*
X276000000Y-137775000D02*
X276000000Y-137000000D01*
X275700000Y-138075000D02*
X276000000Y-137775000D01*
X274950000Y-138075000D02*
X275700000Y-138075000D01*
X274675000Y-138350000D02*
X274950000Y-138075000D01*
X274890000Y-140390420D02*
X274890000Y-139340000D01*
X274890000Y-139340000D02*
X274675000Y-139125000D01*
X276400000Y-137000000D02*
X276400000Y-138250000D01*
X276400000Y-138250000D02*
X276075000Y-138575000D01*
X276075000Y-138575000D02*
X276075000Y-139125000D01*
X276075000Y-139125000D02*
X276075000Y-140225420D01*
X276075000Y-140225420D02*
X275910000Y-140390420D01*
X274800000Y-135800000D02*
X273660000Y-135800000D01*
X273080000Y-136855000D02*
X271155000Y-138780000D01*
X273080000Y-136380000D02*
X273080000Y-136855000D01*
X273660000Y-135800000D02*
X273080000Y-136380000D01*
X271155000Y-138780000D02*
X271117000Y-138780000D01*
D42*
X278000000Y-129100000D02*
X278000000Y-131000000D01*
D39*
X275909580Y-128800000D02*
X276450000Y-128800000D01*
X276800000Y-130050000D02*
X276750000Y-130000000D01*
X276750000Y-130000000D02*
X276500000Y-130000000D01*
X276500000Y-130000000D02*
X276450000Y-129950000D01*
X276450000Y-129950000D02*
X276450000Y-128800000D01*
X276800000Y-130050000D02*
X276800000Y-131000000D01*
X275909580Y-128800000D02*
X275729580Y-128620000D01*
X274800000Y-132600000D02*
X274075000Y-132600000D01*
X274075000Y-132600000D02*
X273800000Y-132875000D01*
X278410000Y-145620000D02*
X277062000Y-145620000D01*
X277062000Y-145620000D02*
X276690000Y-145992000D01*
X276690000Y-144468000D02*
X277638000Y-144468000D01*
X277790000Y-144620000D02*
X278410000Y-144620000D01*
X277638000Y-144468000D02*
X277790000Y-144620000D01*
X269475420Y-143170000D02*
X269475420Y-143725420D01*
X277200000Y-141420000D02*
X277200000Y-137000000D01*
X277310000Y-141530000D02*
X277200000Y-141420000D01*
X269475420Y-143725420D02*
X269570000Y-143820000D01*
X269575000Y-142169580D02*
X269575000Y-143070420D01*
X269575000Y-143070420D02*
X269475420Y-143170000D01*
X276800000Y-137000000D02*
X276800000Y-141620000D01*
X274650000Y-143270000D02*
X273750000Y-143270000D01*
X275900000Y-142020000D02*
X274650000Y-143270000D01*
X276400000Y-142020000D02*
X275900000Y-142020000D01*
X276800000Y-141620000D02*
X276400000Y-142020000D01*
X270675000Y-141270420D02*
X271150420Y-141270420D01*
X271150420Y-141270420D02*
X271850000Y-141970000D01*
X270675000Y-141270420D02*
X269575000Y-141270420D01*
X269865000Y-147105000D02*
X270365000Y-147105000D01*
X270365000Y-147105000D02*
X270365000Y-148180420D01*
X270365000Y-148180420D02*
X270389580Y-148205000D01*
D42*
X272385000Y-150280000D02*
X272385000Y-149650000D01*
X272385000Y-149650000D02*
X270940000Y-148205000D01*
X270940000Y-148205000D02*
X270389580Y-148205000D01*
D39*
X268000000Y-145310420D02*
X269809580Y-145310420D01*
X269809580Y-145310420D02*
X269865000Y-145255000D01*
D42*
X269840000Y-145230000D02*
X269865000Y-145255000D01*
D39*
X271820000Y-144800000D02*
X271365000Y-145255000D01*
X272685000Y-144800000D02*
X271820000Y-144800000D01*
X274800000Y-131800000D02*
X274150000Y-131800000D01*
X267925000Y-133450000D02*
X267925000Y-134800000D01*
X268050000Y-133325000D02*
X267925000Y-133450000D01*
X274150000Y-131800000D02*
X273850000Y-132100000D01*
X314880000Y-129690000D02*
X314650000Y-129690000D01*
X314650000Y-129690000D02*
X313350000Y-128390000D01*
X313350000Y-128390000D02*
X311270000Y-128390000D01*
X311270000Y-128390000D02*
X310820000Y-127940000D01*
X310820000Y-127940000D02*
X309830000Y-127940000D01*
X309830000Y-127940000D02*
X309120000Y-127230000D01*
X309120000Y-127230000D02*
X304280000Y-127230000D01*
X304280000Y-127230000D02*
X303610000Y-126560000D01*
X303610000Y-126560000D02*
X301910000Y-126560000D01*
X301910000Y-126560000D02*
X301580000Y-126230000D01*
X301580000Y-126230000D02*
X294320000Y-126230000D01*
X294320000Y-126230000D02*
X294100000Y-126010000D01*
X294100000Y-126010000D02*
X290100000Y-126010000D01*
X290100000Y-126010000D02*
X288650000Y-127470000D01*
X288650000Y-127470000D02*
X288660000Y-128820000D01*
X312340000Y-129690000D02*
X311800000Y-129690000D01*
X311800000Y-129690000D02*
X310460000Y-128350000D01*
X310460000Y-128350000D02*
X309530000Y-128350000D01*
X309530000Y-128350000D02*
X308820000Y-127640000D01*
X308820000Y-127640000D02*
X304080000Y-127640000D01*
X304080000Y-127640000D02*
X303390000Y-126950000D01*
X303390000Y-126950000D02*
X301600000Y-126950000D01*
X301600000Y-126950000D02*
X301260000Y-126610000D01*
X301260000Y-126610000D02*
X294210000Y-126610000D01*
X294210000Y-126610000D02*
X294000000Y-126400000D01*
X294000000Y-126400000D02*
X290240000Y-126400000D01*
X290240000Y-126400000D02*
X289160000Y-127480000D01*
X289160000Y-127480000D02*
X289160000Y-128820000D01*
X289660000Y-128820000D02*
X289660000Y-127460000D01*
X308580000Y-127960000D02*
X309800000Y-129180000D01*
X303730000Y-127960000D02*
X308580000Y-127960000D01*
X303130000Y-127360000D02*
X303730000Y-127960000D01*
X301318804Y-127360000D02*
X303130000Y-127360000D01*
X300888804Y-126930000D02*
X301318804Y-127360000D01*
X293930000Y-126930000D02*
X300888804Y-126930000D01*
X293705598Y-126705598D02*
X293930000Y-126930000D01*
X290414402Y-126705598D02*
X293705598Y-126705598D01*
X289660000Y-127460000D02*
X290414402Y-126705598D01*
X309800000Y-129180000D02*
X309800000Y-129690000D01*
X307260000Y-129690000D02*
X306590000Y-129690000D01*
X306590000Y-129690000D02*
X305250000Y-128350000D01*
X305250000Y-128350000D02*
X303560000Y-128350000D01*
X303560000Y-128350000D02*
X302995598Y-127785598D01*
X302995598Y-127785598D02*
X301245598Y-127785598D01*
X301245598Y-127785598D02*
X300790000Y-127330000D01*
X300790000Y-127330000D02*
X293800000Y-127330000D01*
X293800000Y-127330000D02*
X293480000Y-127010000D01*
X293480000Y-127010000D02*
X290610000Y-127010000D01*
X290610000Y-127010000D02*
X290130000Y-127490000D01*
X290130000Y-127490000D02*
X290130000Y-128790000D01*
X290130000Y-128790000D02*
X290160000Y-128820000D01*
X304720000Y-129690000D02*
X304240000Y-129690000D01*
X304240000Y-129690000D02*
X302640000Y-128090000D01*
X302640000Y-128090000D02*
X301070000Y-128090000D01*
X301070000Y-128090000D02*
X300630000Y-127650000D01*
X300630000Y-127650000D02*
X293450000Y-127650000D01*
X293450000Y-127650000D02*
X293130000Y-127330000D01*
X293130000Y-127330000D02*
X291000000Y-127330000D01*
X291000000Y-127330000D02*
X290660000Y-127670000D01*
X290660000Y-127670000D02*
X290660000Y-128820000D01*
X302180000Y-129690000D02*
X302090000Y-129690000D01*
X302090000Y-129690000D02*
X300390000Y-127990000D01*
X300390000Y-127990000D02*
X293210000Y-127990000D01*
X293210000Y-127990000D02*
X292900000Y-127680000D01*
X292900000Y-127680000D02*
X291470000Y-127680000D01*
X291470000Y-127680000D02*
X291160000Y-127990000D01*
X291160000Y-127990000D02*
X291160000Y-128820000D01*
X299640000Y-129690000D02*
X299080000Y-129690000D01*
X299080000Y-129690000D02*
X297830000Y-128440000D01*
X297830000Y-128440000D02*
X292830000Y-128440000D01*
X292830000Y-128440000D02*
X292460000Y-128070000D01*
X292460000Y-128070000D02*
X291740000Y-128070000D01*
X291740000Y-128070000D02*
X291660000Y-128150000D01*
X291660000Y-128150000D02*
X291660000Y-128820000D01*
X297100000Y-129690000D02*
X295980000Y-129690000D01*
X292960000Y-128820000D02*
X292160000Y-128820000D01*
X293080000Y-128940000D02*
X292960000Y-128820000D01*
X295230000Y-128940000D02*
X293080000Y-128940000D01*
X295980000Y-129690000D02*
X295230000Y-128940000D01*
X292160000Y-128820000D02*
X292160000Y-128790000D01*
X292160000Y-133620000D02*
X296080000Y-133620000D01*
X296080000Y-133620000D02*
X297120000Y-132580000D01*
X299660000Y-132580000D02*
X299660000Y-132980000D01*
X299660000Y-132980000D02*
X298715598Y-133924402D01*
X291660000Y-134150000D02*
X291660000Y-133620000D01*
X291790000Y-134280000D02*
X291660000Y-134150000D01*
X292580000Y-134280000D02*
X291790000Y-134280000D01*
X292935598Y-133924402D02*
X292580000Y-134280000D01*
X298715598Y-133924402D02*
X292935598Y-133924402D01*
X291660000Y-133620000D02*
X291660000Y-133920000D01*
X299510000Y-132580000D02*
X299660000Y-132580000D01*
X302200000Y-132580000D02*
X301770000Y-132580000D01*
X301770000Y-132580000D02*
X300121196Y-134228804D01*
X300121196Y-134228804D02*
X293141196Y-134228804D01*
X293141196Y-134228804D02*
X292770000Y-134600000D01*
X292770000Y-134600000D02*
X291540000Y-134600000D01*
X291540000Y-134600000D02*
X291160000Y-134220000D01*
X291160000Y-134220000D02*
X291160000Y-133620000D01*
X304740000Y-132580000D02*
X304480000Y-132580000D01*
X304480000Y-132580000D02*
X302400000Y-134660000D01*
X302400000Y-134660000D02*
X293270000Y-134660000D01*
X293270000Y-134660000D02*
X292960000Y-134970000D01*
X292960000Y-134970000D02*
X291180000Y-134970000D01*
X291180000Y-134970000D02*
X290660000Y-134450000D01*
X290660000Y-134450000D02*
X290660000Y-133620000D01*
X307280000Y-132580000D02*
X307190000Y-132580000D01*
X307190000Y-132580000D02*
X304740000Y-135030000D01*
X304740000Y-135030000D02*
X293360000Y-135030000D01*
X293360000Y-135030000D02*
X293090000Y-135300000D01*
X293090000Y-135300000D02*
X290900000Y-135300000D01*
X290900000Y-135300000D02*
X290160000Y-134560000D01*
X290160000Y-134560000D02*
X290160000Y-133620000D01*
X309820000Y-132580000D02*
X309620000Y-132580000D01*
X309620000Y-132580000D02*
X306840000Y-135360000D01*
X306840000Y-135360000D02*
X293540000Y-135360000D01*
X293540000Y-135360000D02*
X293190000Y-135710000D01*
X293190000Y-135710000D02*
X290270000Y-135710000D01*
X290270000Y-135710000D02*
X289670000Y-135110000D01*
X289670000Y-135110000D02*
X289670000Y-133630000D01*
X289670000Y-133630000D02*
X289660000Y-133620000D01*
X312360000Y-132580000D02*
X311840000Y-132580000D01*
X311840000Y-132580000D02*
X308700000Y-135720000D01*
X308700000Y-135720000D02*
X293640000Y-135720000D01*
X293640000Y-135720000D02*
X293250000Y-136110000D01*
X293250000Y-136110000D02*
X289920000Y-136110000D01*
X289920000Y-136110000D02*
X289160000Y-135350000D01*
X289160000Y-135350000D02*
X289160000Y-133620000D01*
X314900000Y-132580000D02*
X314550000Y-132580000D01*
X314550000Y-132580000D02*
X312510000Y-134620000D01*
X312510000Y-134620000D02*
X310580000Y-134620000D01*
X310580000Y-134620000D02*
X309170000Y-136030000D01*
X309170000Y-136030000D02*
X293850000Y-136030000D01*
X293850000Y-136030000D02*
X293430000Y-136450000D01*
X293430000Y-136450000D02*
X289770000Y-136450000D01*
X289770000Y-136450000D02*
X288660000Y-135340000D01*
X288660000Y-135340000D02*
X288660000Y-133620000D01*
X288060000Y-151620000D02*
X287400000Y-151620000D01*
X286880000Y-151100000D02*
X287400000Y-151620000D01*
X286880000Y-147960000D02*
X286880000Y-151100000D01*
X286880000Y-147960000D02*
X286610000Y-147690000D01*
X287370000Y-134070000D02*
X287290000Y-134150000D01*
X287290000Y-134150000D02*
X287290000Y-140470000D01*
X287290000Y-140470000D02*
X287650000Y-140830000D01*
X288430000Y-140830000D02*
X287650000Y-140830000D01*
X284710000Y-129780000D02*
X286300000Y-129780000D01*
X278400000Y-130090000D02*
X279510000Y-128980000D01*
X279510000Y-128980000D02*
X280000000Y-128980000D01*
X280000000Y-128980000D02*
X280130000Y-128850000D01*
X280130000Y-128850000D02*
X282270000Y-128850000D01*
X282270000Y-128850000D02*
X283200000Y-129780000D01*
X283200000Y-129780000D02*
X284710000Y-129780000D01*
X278400000Y-131000000D02*
X278400000Y-130090000D01*
X286490000Y-129970000D02*
X288010000Y-129970000D01*
X286300000Y-129780000D02*
X286430000Y-129910000D01*
X286430000Y-129910000D02*
X286490000Y-129970000D01*
X287430000Y-152120000D02*
X288060000Y-152120000D01*
X286500000Y-151190000D02*
X287430000Y-152120000D01*
X286500000Y-148670000D02*
X286500000Y-151190000D01*
X286050000Y-148220000D02*
X286500000Y-148670000D01*
X285930000Y-130470000D02*
X285860000Y-130470000D01*
X287410000Y-141330000D02*
X288430000Y-141330000D01*
X286930000Y-140850000D02*
X287410000Y-141330000D01*
X286930000Y-134540000D02*
X286930000Y-140850000D01*
X286760000Y-134370000D02*
X286930000Y-134540000D01*
X285860000Y-130470000D02*
X285700000Y-130310000D01*
X278800000Y-131000000D02*
X278800000Y-130319510D01*
X285650000Y-130470000D02*
X285930000Y-130470000D01*
X285930000Y-130470000D02*
X288010000Y-130470000D01*
X284960000Y-131160000D02*
X285650000Y-130470000D01*
X282710000Y-131160000D02*
X284960000Y-131160000D01*
X282580000Y-131030000D02*
X282710000Y-131160000D01*
X282580000Y-130050000D02*
X282580000Y-130740000D01*
X282580000Y-130740000D02*
X282580000Y-131030000D01*
X281765598Y-129235598D02*
X282580000Y-130050000D01*
X280934402Y-129235598D02*
X281765598Y-129235598D01*
X280770000Y-129400000D02*
X280934402Y-129235598D01*
X279719510Y-129400000D02*
X280770000Y-129400000D01*
X278800000Y-130319510D02*
X279719510Y-129400000D01*
X286960000Y-153620000D02*
X288060000Y-153620000D01*
X285940000Y-152600000D02*
X286960000Y-153620000D01*
X285940000Y-149280000D02*
X285940000Y-152600000D01*
X285500000Y-148840000D02*
X285940000Y-149280000D01*
X285500000Y-148820000D02*
X285500000Y-148840000D01*
X285740000Y-131970000D02*
X285740000Y-131750000D01*
X287170000Y-142830000D02*
X288430000Y-142830000D01*
X286410000Y-142070000D02*
X287170000Y-142830000D01*
X286410000Y-134990000D02*
X286410000Y-142070000D01*
X286080000Y-134660000D02*
X286410000Y-134990000D01*
X285740000Y-131750000D02*
X285580000Y-131590000D01*
X279200000Y-131000000D02*
X279200000Y-130350000D01*
X284620000Y-131970000D02*
X285740000Y-131970000D01*
X285740000Y-131970000D02*
X285770000Y-131970000D01*
X285770000Y-131970000D02*
X288010000Y-131970000D01*
X284140000Y-131490000D02*
X284620000Y-131970000D01*
X282190000Y-131490000D02*
X284140000Y-131490000D01*
X282170000Y-131470000D02*
X282190000Y-131490000D01*
X282170000Y-130080000D02*
X282170000Y-131470000D01*
X281630000Y-129540000D02*
X282170000Y-130080000D01*
X281180000Y-129540000D02*
X281630000Y-129540000D01*
X281010000Y-129710000D02*
X281180000Y-129540000D01*
X279840000Y-129710000D02*
X281010000Y-129710000D01*
X279200000Y-130350000D02*
X279840000Y-129710000D01*
X286650000Y-154120000D02*
X288060000Y-154120000D01*
X285440000Y-152910000D02*
X286650000Y-154120000D01*
X285440000Y-149880000D02*
X285440000Y-152910000D01*
X284930000Y-149370000D02*
X285440000Y-149880000D01*
X285000000Y-132470000D02*
X285000000Y-132630000D01*
X287040000Y-143330000D02*
X288430000Y-143330000D01*
X286000000Y-142290000D02*
X287040000Y-143330000D01*
X286000000Y-135570000D02*
X286000000Y-142290000D01*
X285400000Y-134970000D02*
X286000000Y-135570000D01*
X285000000Y-132630000D02*
X284940000Y-132690000D01*
X288400000Y-143360000D02*
X288430000Y-143330000D01*
X288030000Y-154150000D02*
X288060000Y-154120000D01*
X280800000Y-131800000D02*
X283960000Y-131800000D01*
X284630000Y-132470000D02*
X285000000Y-132470000D01*
X285000000Y-132470000D02*
X285350000Y-132470000D01*
X285350000Y-132470000D02*
X288010000Y-132470000D01*
X283960000Y-131800000D02*
X284630000Y-132470000D01*
X287980000Y-132500000D02*
X288010000Y-132470000D01*
X280900000Y-131800000D02*
X280950000Y-131800000D01*
D43*
X280900000Y-131800000D02*
X281100000Y-131800000D01*
D39*
X288040000Y-134570000D02*
X288000000Y-134570000D01*
X284065000Y-139015000D02*
X285010000Y-138070000D01*
X285010000Y-138070000D02*
X285010000Y-136190000D01*
X285010000Y-136190000D02*
X284780000Y-135960000D01*
X284780000Y-135960000D02*
X284780000Y-134440000D01*
X284780000Y-134440000D02*
X285710000Y-133510000D01*
X285710000Y-133510000D02*
X287540000Y-133510000D01*
X287540000Y-133510000D02*
X288040000Y-134010000D01*
X288040000Y-134010000D02*
X288040000Y-134570000D01*
X283310000Y-139015000D02*
X284065000Y-139015000D01*
X293320000Y-130970000D02*
X292810000Y-130970000D01*
X293840000Y-131490000D02*
X293320000Y-130970000D01*
X288000000Y-134570000D02*
X287970000Y-134600000D01*
X284035000Y-141240000D02*
X284740000Y-141240000D01*
X293620000Y-152620000D02*
X292860000Y-152620000D01*
X293690000Y-152690000D02*
X293620000Y-152620000D01*
X293690000Y-152730000D02*
X293690000Y-152690000D01*
X293890000Y-152930000D02*
X293690000Y-152730000D01*
X287170000Y-145080000D02*
X287170000Y-145550000D01*
X285190000Y-143100000D02*
X287170000Y-145080000D01*
X285190000Y-141690000D02*
X285190000Y-143100000D01*
X284740000Y-141240000D02*
X285190000Y-141690000D01*
X293640000Y-141830000D02*
X294210000Y-142400000D01*
X294210000Y-142400000D02*
X294210000Y-142580000D01*
X293230000Y-141830000D02*
X293640000Y-141830000D01*
X285180000Y-139740000D02*
X284035000Y-139740000D01*
X285520000Y-140080000D02*
X285180000Y-139740000D01*
X285520000Y-142810000D02*
X285520000Y-140080000D01*
X287780000Y-145070000D02*
X285520000Y-142810000D01*
X281810000Y-139015000D02*
X280825000Y-139015000D01*
X280000000Y-138190000D02*
X280000000Y-137000000D01*
X280825000Y-139015000D02*
X280000000Y-138190000D01*
X281085000Y-139740000D02*
X280640000Y-139740000D01*
X279600000Y-138700000D02*
X279600000Y-137000000D01*
X280640000Y-139740000D02*
X279600000Y-138700000D01*
X281085000Y-140240000D02*
X280420000Y-140240000D01*
X279200000Y-139020000D02*
X279200000Y-137000000D01*
X280420000Y-140240000D02*
X279200000Y-139020000D01*
X281085000Y-140740000D02*
X280250000Y-140740000D01*
X278800000Y-139290000D02*
X278800000Y-137000000D01*
X280250000Y-140740000D02*
X278800000Y-139290000D01*
X281085000Y-141240000D02*
X280140000Y-141240000D01*
X278400000Y-139500000D02*
X278400000Y-137000000D01*
X280140000Y-141240000D02*
X278400000Y-139500000D01*
X315300000Y-140550000D02*
X315070000Y-140550000D01*
X315070000Y-140550000D02*
X313770000Y-139250000D01*
X313770000Y-139250000D02*
X311690000Y-139250000D01*
X311690000Y-139250000D02*
X311240000Y-138800000D01*
X311240000Y-138800000D02*
X310250000Y-138800000D01*
X310250000Y-138800000D02*
X309540000Y-138090000D01*
X309540000Y-138090000D02*
X304700000Y-138090000D01*
X304700000Y-138090000D02*
X304030000Y-137420000D01*
X304030000Y-137420000D02*
X302330000Y-137420000D01*
X302330000Y-137420000D02*
X302000000Y-137090000D01*
X302000000Y-137090000D02*
X294740000Y-137090000D01*
X294740000Y-137090000D02*
X294520000Y-136870000D01*
X294520000Y-136870000D02*
X290520000Y-136870000D01*
X290520000Y-136870000D02*
X289070000Y-138330000D01*
X289070000Y-138330000D02*
X289080000Y-139680000D01*
X312760000Y-140550000D02*
X312220000Y-140550000D01*
X312220000Y-140550000D02*
X310880000Y-139210000D01*
X310880000Y-139210000D02*
X309950000Y-139210000D01*
X309950000Y-139210000D02*
X309240000Y-138500000D01*
X309240000Y-138500000D02*
X304500000Y-138500000D01*
X304500000Y-138500000D02*
X303810000Y-137810000D01*
X303810000Y-137810000D02*
X302020000Y-137810000D01*
X302020000Y-137810000D02*
X301680000Y-137470000D01*
X301680000Y-137470000D02*
X294630000Y-137470000D01*
X294630000Y-137470000D02*
X294420000Y-137260000D01*
X294420000Y-137260000D02*
X290660000Y-137260000D01*
X290660000Y-137260000D02*
X289580000Y-138340000D01*
X289580000Y-138340000D02*
X289580000Y-139680000D01*
X290080000Y-139680000D02*
X290080000Y-138320000D01*
X309000000Y-138820000D02*
X310220000Y-140040000D01*
X304150000Y-138820000D02*
X309000000Y-138820000D01*
X303550000Y-138220000D02*
X304150000Y-138820000D01*
X301738804Y-138220000D02*
X303550000Y-138220000D01*
X301308804Y-137790000D02*
X301738804Y-138220000D01*
X294350000Y-137790000D02*
X301308804Y-137790000D01*
X294125598Y-137565598D02*
X294350000Y-137790000D01*
X290834402Y-137565598D02*
X294125598Y-137565598D01*
X290080000Y-138320000D02*
X290834402Y-137565598D01*
X310220000Y-140040000D02*
X310220000Y-140550000D01*
X307680000Y-140550000D02*
X307010000Y-140550000D01*
X307010000Y-140550000D02*
X305670000Y-139210000D01*
X305670000Y-139210000D02*
X303980000Y-139210000D01*
X303980000Y-139210000D02*
X303415598Y-138645598D01*
X303415598Y-138645598D02*
X301665598Y-138645598D01*
X301665598Y-138645598D02*
X301210000Y-138190000D01*
X301210000Y-138190000D02*
X294220000Y-138190000D01*
X294220000Y-138190000D02*
X293900000Y-137870000D01*
X293900000Y-137870000D02*
X291030000Y-137870000D01*
X291030000Y-137870000D02*
X290550000Y-138350000D01*
X290550000Y-138350000D02*
X290550000Y-139650000D01*
X290550000Y-139650000D02*
X290580000Y-139680000D01*
X305140000Y-140550000D02*
X304660000Y-140550000D01*
X304660000Y-140550000D02*
X303060000Y-138950000D01*
X303060000Y-138950000D02*
X301490000Y-138950000D01*
X301490000Y-138950000D02*
X301050000Y-138510000D01*
X301050000Y-138510000D02*
X293870000Y-138510000D01*
X293870000Y-138510000D02*
X293550000Y-138190000D01*
X293550000Y-138190000D02*
X291420000Y-138190000D01*
X291420000Y-138190000D02*
X291080000Y-138530000D01*
X291080000Y-138530000D02*
X291080000Y-139680000D01*
X302600000Y-140550000D02*
X302510000Y-140550000D01*
X302510000Y-140550000D02*
X300810000Y-138850000D01*
X300810000Y-138850000D02*
X293630000Y-138850000D01*
X293630000Y-138850000D02*
X293320000Y-138540000D01*
X293320000Y-138540000D02*
X291890000Y-138540000D01*
X291890000Y-138540000D02*
X291580000Y-138850000D01*
X291580000Y-138850000D02*
X291580000Y-139680000D01*
X300060000Y-140550000D02*
X299500000Y-140550000D01*
X299500000Y-140550000D02*
X298250000Y-139300000D01*
X298250000Y-139300000D02*
X293250000Y-139300000D01*
X293250000Y-139300000D02*
X292880000Y-138930000D01*
X292880000Y-138930000D02*
X292160000Y-138930000D01*
X292160000Y-138930000D02*
X292080000Y-139010000D01*
X292080000Y-139010000D02*
X292080000Y-139680000D01*
X297520000Y-140550000D02*
X296400000Y-140550000D01*
X293380000Y-139680000D02*
X292580000Y-139680000D01*
X293500000Y-139800000D02*
X293380000Y-139680000D01*
X295650000Y-139800000D02*
X293500000Y-139800000D01*
X296400000Y-140550000D02*
X295650000Y-139800000D01*
X292580000Y-139680000D02*
X292580000Y-139650000D01*
X292580000Y-144480000D02*
X296500000Y-144480000D01*
X296500000Y-144480000D02*
X297540000Y-143440000D01*
X300080000Y-143440000D02*
X300080000Y-143840000D01*
X300080000Y-143840000D02*
X299135598Y-144784402D01*
X292080000Y-145010000D02*
X292080000Y-144480000D01*
X292210000Y-145140000D02*
X292080000Y-145010000D01*
X293000000Y-145140000D02*
X292210000Y-145140000D01*
X293355598Y-144784402D02*
X293000000Y-145140000D01*
X299135598Y-144784402D02*
X293355598Y-144784402D01*
X292080000Y-144480000D02*
X292080000Y-144780000D01*
X299930000Y-143440000D02*
X300080000Y-143440000D01*
X302620000Y-143440000D02*
X302190000Y-143440000D01*
X302190000Y-143440000D02*
X300541196Y-145088804D01*
X300541196Y-145088804D02*
X293561196Y-145088804D01*
X293561196Y-145088804D02*
X293190000Y-145460000D01*
X293190000Y-145460000D02*
X291960000Y-145460000D01*
X291960000Y-145460000D02*
X291580000Y-145080000D01*
X291580000Y-145080000D02*
X291580000Y-144480000D01*
X305160000Y-143440000D02*
X304900000Y-143440000D01*
X304900000Y-143440000D02*
X302820000Y-145520000D01*
X302820000Y-145520000D02*
X293690000Y-145520000D01*
X293690000Y-145520000D02*
X293380000Y-145830000D01*
X293380000Y-145830000D02*
X291600000Y-145830000D01*
X291600000Y-145830000D02*
X291080000Y-145310000D01*
X291080000Y-145310000D02*
X291080000Y-144480000D01*
X307700000Y-143440000D02*
X307610000Y-143440000D01*
X307610000Y-143440000D02*
X305160000Y-145890000D01*
X305160000Y-145890000D02*
X293780000Y-145890000D01*
X293780000Y-145890000D02*
X293510000Y-146160000D01*
X293510000Y-146160000D02*
X291320000Y-146160000D01*
X291320000Y-146160000D02*
X290580000Y-145420000D01*
X290580000Y-145420000D02*
X290580000Y-144480000D01*
X310240000Y-143440000D02*
X310040000Y-143440000D01*
X310040000Y-143440000D02*
X307260000Y-146220000D01*
X307260000Y-146220000D02*
X293960000Y-146220000D01*
X293960000Y-146220000D02*
X293610000Y-146570000D01*
X293610000Y-146570000D02*
X290690000Y-146570000D01*
X290690000Y-146570000D02*
X290090000Y-145970000D01*
X290090000Y-145970000D02*
X290090000Y-144490000D01*
X290090000Y-144490000D02*
X290080000Y-144480000D01*
X312780000Y-143440000D02*
X312260000Y-143440000D01*
X312260000Y-143440000D02*
X309120000Y-146580000D01*
X309120000Y-146580000D02*
X294060000Y-146580000D01*
X294060000Y-146580000D02*
X293670000Y-146970000D01*
X293670000Y-146970000D02*
X290340000Y-146970000D01*
X290340000Y-146970000D02*
X289580000Y-146210000D01*
X289580000Y-146210000D02*
X289580000Y-144480000D01*
X315320000Y-143440000D02*
X314970000Y-143440000D01*
X314970000Y-143440000D02*
X312930000Y-145480000D01*
X312930000Y-145480000D02*
X311000000Y-145480000D01*
X311000000Y-145480000D02*
X309590000Y-146890000D01*
X309590000Y-146890000D02*
X294270000Y-146890000D01*
X294270000Y-146890000D02*
X293850000Y-147310000D01*
X293850000Y-147310000D02*
X290190000Y-147310000D01*
X290190000Y-147310000D02*
X289080000Y-146200000D01*
X289080000Y-146200000D02*
X289080000Y-144480000D01*
X288700000Y-149120000D02*
X288710000Y-150470000D01*
X290150000Y-147660000D02*
X288700000Y-149120000D01*
X294150000Y-147660000D02*
X290150000Y-147660000D01*
X294370000Y-147880000D02*
X294150000Y-147660000D01*
X301630000Y-147880000D02*
X294370000Y-147880000D01*
X301960000Y-148210000D02*
X301630000Y-147880000D01*
X303660000Y-148210000D02*
X301960000Y-148210000D01*
X304330000Y-148880000D02*
X303660000Y-148210000D01*
X309170000Y-148880000D02*
X304330000Y-148880000D01*
X309880000Y-149590000D02*
X309170000Y-148880000D01*
X310870000Y-149590000D02*
X309880000Y-149590000D01*
X311320000Y-150040000D02*
X310870000Y-149590000D01*
X313400000Y-150040000D02*
X311320000Y-150040000D01*
X314700000Y-151340000D02*
X313400000Y-150040000D01*
X314930000Y-151340000D02*
X314700000Y-151340000D01*
X289210000Y-149130000D02*
X289210000Y-150470000D01*
X290290000Y-148050000D02*
X289210000Y-149130000D01*
X294050000Y-148050000D02*
X290290000Y-148050000D01*
X294260000Y-148260000D02*
X294050000Y-148050000D01*
X301310000Y-148260000D02*
X294260000Y-148260000D01*
X301650000Y-148600000D02*
X301310000Y-148260000D01*
X303440000Y-148600000D02*
X301650000Y-148600000D01*
X304130000Y-149290000D02*
X303440000Y-148600000D01*
X308870000Y-149290000D02*
X304130000Y-149290000D01*
X309580000Y-150000000D02*
X308870000Y-149290000D01*
X310510000Y-150000000D02*
X309580000Y-150000000D01*
X311850000Y-151340000D02*
X310510000Y-150000000D01*
X312390000Y-151340000D02*
X311850000Y-151340000D01*
X309850000Y-150830000D02*
X309850000Y-151340000D01*
X289710000Y-149110000D02*
X290464402Y-148355598D01*
X290464402Y-148355598D02*
X293755598Y-148355598D01*
X293755598Y-148355598D02*
X293980000Y-148580000D01*
X293980000Y-148580000D02*
X300938804Y-148580000D01*
X300938804Y-148580000D02*
X301368804Y-149010000D01*
X301368804Y-149010000D02*
X303180000Y-149010000D01*
X303180000Y-149010000D02*
X303780000Y-149610000D01*
X303780000Y-149610000D02*
X308630000Y-149610000D01*
X308630000Y-149610000D02*
X309850000Y-150830000D01*
X289710000Y-150470000D02*
X289710000Y-149110000D01*
X290180000Y-150440000D02*
X290210000Y-150470000D01*
X290180000Y-149140000D02*
X290180000Y-150440000D01*
X290660000Y-148660000D02*
X290180000Y-149140000D01*
X293530000Y-148660000D02*
X290660000Y-148660000D01*
X293850000Y-148980000D02*
X293530000Y-148660000D01*
X300840000Y-148980000D02*
X293850000Y-148980000D01*
X301295598Y-149435598D02*
X300840000Y-148980000D01*
X303045598Y-149435598D02*
X301295598Y-149435598D01*
X303610000Y-150000000D02*
X303045598Y-149435598D01*
X305300000Y-150000000D02*
X303610000Y-150000000D01*
X306640000Y-151340000D02*
X305300000Y-150000000D01*
X307310000Y-151340000D02*
X306640000Y-151340000D01*
X290710000Y-149320000D02*
X290710000Y-150470000D01*
X291050000Y-148980000D02*
X290710000Y-149320000D01*
X293180000Y-148980000D02*
X291050000Y-148980000D01*
X293500000Y-149300000D02*
X293180000Y-148980000D01*
X300680000Y-149300000D02*
X293500000Y-149300000D01*
X301120000Y-149740000D02*
X300680000Y-149300000D01*
X302690000Y-149740000D02*
X301120000Y-149740000D01*
X304290000Y-151340000D02*
X302690000Y-149740000D01*
X304770000Y-151340000D02*
X304290000Y-151340000D01*
X291210000Y-149640000D02*
X291210000Y-150470000D01*
X291520000Y-149330000D02*
X291210000Y-149640000D01*
X292950000Y-149330000D02*
X291520000Y-149330000D01*
X293260000Y-149640000D02*
X292950000Y-149330000D01*
X300440000Y-149640000D02*
X293260000Y-149640000D01*
X302140000Y-151340000D02*
X300440000Y-149640000D01*
X302230000Y-151340000D02*
X302140000Y-151340000D01*
X291710000Y-149800000D02*
X291710000Y-150470000D01*
X291790000Y-149720000D02*
X291710000Y-149800000D01*
X292510000Y-149720000D02*
X291790000Y-149720000D01*
X292880000Y-150090000D02*
X292510000Y-149720000D01*
X297880000Y-150090000D02*
X292880000Y-150090000D01*
X299130000Y-151340000D02*
X297880000Y-150090000D01*
X299690000Y-151340000D02*
X299130000Y-151340000D01*
X292210000Y-150470000D02*
X292210000Y-150440000D01*
X296030000Y-151340000D02*
X295280000Y-150590000D01*
X295280000Y-150590000D02*
X293130000Y-150590000D01*
X293130000Y-150590000D02*
X293010000Y-150470000D01*
X293010000Y-150470000D02*
X292210000Y-150470000D01*
X297150000Y-151340000D02*
X296030000Y-151340000D01*
X296130000Y-155270000D02*
X297170000Y-154230000D01*
X292210000Y-155270000D02*
X296130000Y-155270000D01*
X299560000Y-154230000D02*
X299710000Y-154230000D01*
X291710000Y-155270000D02*
X291710000Y-155570000D01*
X298765598Y-155574402D02*
X292985598Y-155574402D01*
X292985598Y-155574402D02*
X292630000Y-155930000D01*
X292630000Y-155930000D02*
X291840000Y-155930000D01*
X291840000Y-155930000D02*
X291710000Y-155800000D01*
X291710000Y-155800000D02*
X291710000Y-155270000D01*
X299710000Y-154630000D02*
X298765598Y-155574402D01*
X299710000Y-154230000D02*
X299710000Y-154630000D01*
X291210000Y-155870000D02*
X291210000Y-155270000D01*
X291590000Y-156250000D02*
X291210000Y-155870000D01*
X292820000Y-156250000D02*
X291590000Y-156250000D01*
X293191196Y-155878804D02*
X292820000Y-156250000D01*
X300171196Y-155878804D02*
X293191196Y-155878804D01*
X301820000Y-154230000D02*
X300171196Y-155878804D01*
X302250000Y-154230000D02*
X301820000Y-154230000D01*
X290710000Y-156100000D02*
X290710000Y-155270000D01*
X291230000Y-156620000D02*
X290710000Y-156100000D01*
X293010000Y-156620000D02*
X291230000Y-156620000D01*
X293320000Y-156310000D02*
X293010000Y-156620000D01*
X302450000Y-156310000D02*
X293320000Y-156310000D01*
X304530000Y-154230000D02*
X302450000Y-156310000D01*
X304790000Y-154230000D02*
X304530000Y-154230000D01*
X290210000Y-156210000D02*
X290210000Y-155270000D01*
X290950000Y-156950000D02*
X290210000Y-156210000D01*
X293140000Y-156950000D02*
X290950000Y-156950000D01*
X293410000Y-156680000D02*
X293140000Y-156950000D01*
X304790000Y-156680000D02*
X293410000Y-156680000D01*
X307240000Y-154230000D02*
X304790000Y-156680000D01*
X307330000Y-154230000D02*
X307240000Y-154230000D01*
X289720000Y-155280000D02*
X289710000Y-155270000D01*
X289720000Y-156760000D02*
X289720000Y-155280000D01*
X290320000Y-157360000D02*
X289720000Y-156760000D01*
X293240000Y-157360000D02*
X290320000Y-157360000D01*
X293590000Y-157010000D02*
X293240000Y-157360000D01*
X306890000Y-157010000D02*
X293590000Y-157010000D01*
X309670000Y-154230000D02*
X306890000Y-157010000D01*
X309870000Y-154230000D02*
X309670000Y-154230000D01*
X289210000Y-157000000D02*
X289210000Y-155270000D01*
X289970000Y-157760000D02*
X289210000Y-157000000D01*
X293300000Y-157760000D02*
X289970000Y-157760000D01*
X293690000Y-157370000D02*
X293300000Y-157760000D01*
X308750000Y-157370000D02*
X293690000Y-157370000D01*
X311890000Y-154230000D02*
X308750000Y-157370000D01*
X312410000Y-154230000D02*
X311890000Y-154230000D01*
X288710000Y-156990000D02*
X288710000Y-155270000D01*
X289820000Y-158100000D02*
X288710000Y-156990000D01*
X293480000Y-158100000D02*
X289820000Y-158100000D01*
X293900000Y-157680000D02*
X293480000Y-158100000D01*
X309220000Y-157680000D02*
X293900000Y-157680000D01*
X310630000Y-156270000D02*
X309220000Y-157680000D01*
X312560000Y-156270000D02*
X310630000Y-156270000D01*
X314600000Y-154230000D02*
X312560000Y-156270000D01*
X314950000Y-154230000D02*
X314600000Y-154230000D01*
M02*
