M48
;DRILL file {KiCad 4.0.6} date 06/08/18 16:17:39
;FORMAT={-:-/ absolute / inch / decimal}
FMAT,2
INCH,TZ
T1C0.013
T2C0.039
T3C0.040
%
G90
G05
M72
T1
X10.5531Y-5.249
X10.5551Y-5.4055
X10.5976Y-5.3289
X10.613Y-5.6622
X10.7362Y-5.6169
X10.753Y-5.5217
X10.7539Y-5.124
X10.7795Y-5.2313
X10.7815Y-5.2008
X10.7841Y-5.7984
X10.7874Y-5.2608
X10.8035Y-5.5976
X10.8102Y-5.0965
X10.8126Y-5.3941
X10.8311Y-5.715
X10.8315Y-5.1567
X10.8567Y-5.6488
X10.8984Y-5.0559
X10.9177Y-5.572
X10.95Y-5.7815
X10.9882Y-5.5955
X10.9886Y-5.0602
X11.0807Y-5.152
X11.0817Y-5.1211
X11.0872Y-5.9073
X11.0888Y-5.385
X11.1191Y-5.6594
X11.1248Y-5.05
X11.1307Y-5.7894
X11.1421Y-5.5134
X11.1496Y-5.2961
X11.176Y-5.872
X11.1913Y-5.4217
X11.2063Y-6.0094
X11.2177Y-5.8807
X11.2181Y-5.224
X11.2362Y-5.3138
X11.2402Y-5.8591
X11.2433Y-5.1807
X11.248Y-5.1303
X11.2618Y-5.8354
X11.263Y-5.3016
X11.2768Y-5.1146
X11.2839Y-5.8146
X11.2898Y-5.2902
X11.3039Y-5.2358
X11.3059Y-5.7303
X11.3138Y-5.2783
X11.3205Y-5.6634
X11.3291Y-6.1272
X11.3299Y-5.7114
X11.3374Y-5.2992
X11.5685Y-5.1768
X11.5705Y-6.0209
X11.5787Y-5.9909
X11.5831Y-5.6134
X11.5902Y-5.1539
X11.5965Y-5.2142
X11.5984Y-6.0665
X11.6067Y-5.5815
X11.613Y-5.6417
X11.6394Y-6.0102
X11.6583Y-5.152
T2
X11.6969Y-5.1059
X11.6976Y-5.2197
X11.6988Y-5.9583
X11.6996Y-6.072
X11.7134Y-5.5335
X11.7142Y-5.6472
X11.7969Y-5.1059
X11.7976Y-5.2197
X11.7988Y-5.9583
X11.7996Y-6.072
X11.8134Y-5.5335
X11.8142Y-5.6472
X11.8969Y-5.1059
X11.8976Y-5.2197
X11.8988Y-5.9583
X11.8996Y-6.072
X11.9134Y-5.5335
X11.9142Y-5.6472
X11.9969Y-5.1059
X11.9976Y-5.2197
X11.9988Y-5.9583
X11.9996Y-6.072
X12.0134Y-5.5335
X12.0142Y-5.6472
X12.0969Y-5.1059
X12.0976Y-5.2197
X12.0988Y-5.9583
X12.0996Y-6.072
X12.1134Y-5.5335
X12.1142Y-5.6472
X12.1969Y-5.1059
X12.1976Y-5.2197
X12.1988Y-5.9583
X12.1996Y-6.072
X12.2134Y-5.5335
X12.2142Y-5.6472
X12.2969Y-5.1059
X12.2976Y-5.2197
X12.2988Y-5.9583
X12.2996Y-6.072
X12.3134Y-5.5335
X12.3142Y-5.6472
X12.3969Y-5.1059
X12.3976Y-5.2197
X12.3988Y-5.9583
X12.3996Y-6.072
X12.4134Y-5.5335
X12.4142Y-5.6472
T3
X10.6238Y-5.9165
X10.7238Y-5.9165
X10.85Y-5.8252
X10.85Y-5.9252
X11.0264Y-6.0386
X11.0264Y-6.1386
X11.1902Y-5.0069
X11.2902Y-5.0069
T0
M30
