G04 #@! TF.FileFunction,Soldermask,Top*
%FSLAX46Y46*%
G04 Gerber Fmt 4.6, Leading zero omitted, Abs format (unit mm)*
G04 Created by KiCad (PCBNEW 4.0.6) date 06/08/18 16:00:36*
%MOMM*%
%LPD*%
G01*
G04 APERTURE LIST*
%ADD10C,0.150000*%
%ADD11R,1.730000X1.730000*%
%ADD12O,1.730000X1.730000*%
%ADD13R,0.428780X0.629440*%
%ADD14R,0.280000X0.730000*%
%ADD15R,0.730000X0.280000*%
%ADD16R,1.755000X1.755000*%
%ADD17R,0.680000X0.430000*%
%ADD18R,1.554000X1.554000*%
%ADD19C,1.554000*%
%ADD20R,0.629440X0.428780*%
%ADD21R,0.830000X0.830000*%
%ADD22R,0.630000X1.130000*%
%ADD23R,1.173000X0.665000*%
%ADD24R,0.730000X0.330000*%
%ADD25R,0.630000X0.630000*%
%ADD26R,0.665000X1.173000*%
%ADD27R,0.930000X0.830000*%
%ADD28R,0.830000X1.630000*%
%ADD29R,0.230000X0.830000*%
%ADD30R,0.830000X0.230000*%
%ADD31R,1.142500X1.142500*%
%ADD32R,0.680000X0.330000*%
%ADD33R,0.805000X1.270000*%
%ADD34R,1.130000X0.640000*%
%ADD35O,0.330000X0.780000*%
%ADD36O,0.780000X0.330000*%
%ADD37R,0.930000X0.930000*%
G04 APERTURE END LIST*
D10*
D11*
X315300000Y-140550000D03*
D12*
X312760000Y-140550000D03*
X310220000Y-140550000D03*
X307680000Y-140550000D03*
X305140000Y-140550000D03*
X302600000Y-140550000D03*
X300060000Y-140550000D03*
X297520000Y-140550000D03*
D13*
X294540420Y-140870000D03*
X295439580Y-140870000D03*
D11*
X297540000Y-143440000D03*
D12*
X300080000Y-143440000D03*
X302620000Y-143440000D03*
X305160000Y-143440000D03*
X307700000Y-143440000D03*
X310240000Y-143440000D03*
X312780000Y-143440000D03*
X315320000Y-143440000D03*
D14*
X292580000Y-139680000D03*
X292080000Y-139680000D03*
X291580000Y-139680000D03*
X291080000Y-139680000D03*
X290580000Y-139680000D03*
X290080000Y-139680000D03*
X289580000Y-139680000D03*
X289080000Y-139680000D03*
D15*
X288430000Y-140330000D03*
X288430000Y-140830000D03*
X288430000Y-141330000D03*
X288430000Y-141830000D03*
X288430000Y-142330000D03*
X288430000Y-142830000D03*
X288430000Y-143330000D03*
X288430000Y-143830000D03*
D14*
X289080000Y-144480000D03*
X289580000Y-144480000D03*
X290080000Y-144480000D03*
X290580000Y-144480000D03*
X291080000Y-144480000D03*
X291580000Y-144480000D03*
X292080000Y-144480000D03*
X292580000Y-144480000D03*
D15*
X293230000Y-143830000D03*
X293230000Y-143330000D03*
X293230000Y-142830000D03*
X293230000Y-142330000D03*
X293230000Y-141830000D03*
X293230000Y-141330000D03*
X293230000Y-140830000D03*
X293230000Y-140330000D03*
D16*
X289967500Y-142942500D03*
X291692500Y-142942500D03*
X289967500Y-141217500D03*
X291692500Y-141217500D03*
D14*
X292210000Y-150470000D03*
X291710000Y-150470000D03*
X291210000Y-150470000D03*
X290710000Y-150470000D03*
X290210000Y-150470000D03*
X289710000Y-150470000D03*
X289210000Y-150470000D03*
X288710000Y-150470000D03*
D15*
X288060000Y-151120000D03*
X288060000Y-151620000D03*
X288060000Y-152120000D03*
X288060000Y-152620000D03*
X288060000Y-153120000D03*
X288060000Y-153620000D03*
X288060000Y-154120000D03*
X288060000Y-154620000D03*
D14*
X288710000Y-155270000D03*
X289210000Y-155270000D03*
X289710000Y-155270000D03*
X290210000Y-155270000D03*
X290710000Y-155270000D03*
X291210000Y-155270000D03*
X291710000Y-155270000D03*
X292210000Y-155270000D03*
D15*
X292860000Y-154620000D03*
X292860000Y-154120000D03*
X292860000Y-153620000D03*
X292860000Y-153120000D03*
X292860000Y-152620000D03*
X292860000Y-152120000D03*
X292860000Y-151620000D03*
X292860000Y-151120000D03*
D16*
X289597500Y-153732500D03*
X291322500Y-153732500D03*
X289597500Y-152007500D03*
X291322500Y-152007500D03*
D11*
X297170000Y-154230000D03*
D12*
X299710000Y-154230000D03*
X302250000Y-154230000D03*
X304790000Y-154230000D03*
X307330000Y-154230000D03*
X309870000Y-154230000D03*
X312410000Y-154230000D03*
X314950000Y-154230000D03*
D13*
X294170420Y-151660000D03*
X295069580Y-151660000D03*
D11*
X314930000Y-151340000D03*
D12*
X312390000Y-151340000D03*
X309850000Y-151340000D03*
X307310000Y-151340000D03*
X304770000Y-151340000D03*
X302230000Y-151340000D03*
X299690000Y-151340000D03*
X297150000Y-151340000D03*
D17*
X282590000Y-150960000D03*
X282590000Y-149660000D03*
X280690000Y-150310000D03*
X282590000Y-150310000D03*
X280690000Y-149660000D03*
X280690000Y-150960000D03*
D13*
X283449580Y-137720000D03*
X282550420Y-137720000D03*
X283240420Y-135170000D03*
X284139580Y-135170000D03*
D11*
X314880000Y-129690000D03*
D12*
X312340000Y-129690000D03*
X309800000Y-129690000D03*
X307260000Y-129690000D03*
X304720000Y-129690000D03*
X302180000Y-129690000D03*
X299640000Y-129690000D03*
X297100000Y-129690000D03*
D13*
X294120420Y-130010000D03*
X295019580Y-130010000D03*
D18*
X275590000Y-150500000D03*
D19*
X275590000Y-147960000D03*
D20*
X268000000Y-146209580D03*
X268000000Y-145310420D03*
D21*
X274285000Y-144800000D03*
X272685000Y-144800000D03*
D18*
X286770000Y-127175000D03*
D19*
X284230000Y-127175000D03*
D20*
X272840000Y-146255420D03*
X272840000Y-147154580D03*
D13*
X269490420Y-148205000D03*
X270389580Y-148205000D03*
D22*
X276075000Y-139125000D03*
X274675000Y-139125000D03*
D20*
X269575000Y-142169580D03*
X269575000Y-141270420D03*
D13*
X270374580Y-143170000D03*
X269475420Y-143170000D03*
D20*
X276530000Y-143539580D03*
X276530000Y-142640420D03*
X270675000Y-141270420D03*
X270675000Y-142169580D03*
D23*
X276690000Y-145992000D03*
X276690000Y-144468000D03*
D20*
X283140000Y-144380420D03*
X283140000Y-145279580D03*
D13*
X272525420Y-138375000D03*
X273424580Y-138375000D03*
D24*
X278326500Y-128500000D03*
D25*
X278000000Y-129112500D03*
X278000000Y-127887500D03*
D24*
X277637500Y-128500000D03*
D13*
X275729580Y-128620000D03*
X274830420Y-128620000D03*
X273150420Y-129450000D03*
X274049580Y-129450000D03*
D23*
X279290000Y-149338000D03*
X279290000Y-150862000D03*
D13*
X281210420Y-148510000D03*
X282109580Y-148510000D03*
D20*
X283830000Y-150969580D03*
X283830000Y-150070420D03*
D13*
X278610420Y-142930000D03*
X279509580Y-142930000D03*
D21*
X267925000Y-136400000D03*
X267925000Y-134800000D03*
D18*
X272385000Y-150280000D03*
D19*
X269845000Y-150280000D03*
D26*
X271117000Y-138780000D03*
X269593000Y-138780000D03*
D27*
X270800000Y-133500000D03*
X272200000Y-133500000D03*
X270800000Y-134600000D03*
X272200000Y-134600000D03*
D20*
X274890000Y-140390420D03*
X274890000Y-141289580D03*
D13*
X273424580Y-139275000D03*
X272525420Y-139275000D03*
D20*
X269800000Y-133750420D03*
X269800000Y-134649580D03*
X273200000Y-134549580D03*
X273200000Y-133650420D03*
D13*
X276899580Y-129450000D03*
X276000420Y-129450000D03*
D20*
X275910000Y-140390420D03*
X275910000Y-141289580D03*
D28*
X270745000Y-127673000D03*
X267345000Y-127673000D03*
D13*
X272849580Y-127700000D03*
X271950420Y-127700000D03*
D20*
X274000000Y-127650420D03*
X274000000Y-128549580D03*
D13*
X276049580Y-127700000D03*
X275150420Y-127700000D03*
X269730420Y-137380000D03*
X270629580Y-137380000D03*
D26*
X272142000Y-136055000D03*
X270618000Y-136055000D03*
X282428000Y-136430000D03*
X283952000Y-136430000D03*
D29*
X275600000Y-137000000D03*
X276000000Y-137000000D03*
X276400000Y-137000000D03*
X276800000Y-137000000D03*
X277200000Y-137000000D03*
X277600000Y-137000000D03*
X278000000Y-137000000D03*
X278400000Y-137000000D03*
X278800000Y-137000000D03*
X279200000Y-137000000D03*
X279600000Y-137000000D03*
X280000000Y-137000000D03*
D30*
X280800000Y-136200000D03*
X280800000Y-135800000D03*
X280800000Y-135400000D03*
X280800000Y-135000000D03*
X280800000Y-134600000D03*
X280800000Y-134200000D03*
X280800000Y-133800000D03*
X280800000Y-133400000D03*
X280800000Y-133000000D03*
X280800000Y-132600000D03*
X280800000Y-132200000D03*
X280800000Y-131800000D03*
D29*
X280000000Y-131000000D03*
X279600000Y-131000000D03*
X279200000Y-131000000D03*
X278800000Y-131000000D03*
X278400000Y-131000000D03*
X278000000Y-131000000D03*
X277600000Y-131000000D03*
X277200000Y-131000000D03*
X276800000Y-131000000D03*
X276400000Y-131000000D03*
X276000000Y-131000000D03*
X275600000Y-131000000D03*
D30*
X274800000Y-131800000D03*
X274800000Y-132200000D03*
X274800000Y-132600000D03*
X274800000Y-133000000D03*
X274800000Y-133400000D03*
X274800000Y-133800000D03*
X274800000Y-134200000D03*
X274800000Y-134600000D03*
X274800000Y-135000000D03*
X274800000Y-135400000D03*
X274800000Y-135800000D03*
X274800000Y-136200000D03*
D31*
X279468750Y-132331250D03*
X278356250Y-132331250D03*
X277243750Y-132331250D03*
X276131250Y-132331250D03*
X279468750Y-133443750D03*
X278356250Y-133443750D03*
X277243750Y-133443750D03*
X276131250Y-133443750D03*
X279468750Y-134556250D03*
X278356250Y-134556250D03*
X277243750Y-134556250D03*
X276131250Y-134556250D03*
X279468750Y-135668750D03*
X278356250Y-135668750D03*
X277243750Y-135668750D03*
X276131250Y-135668750D03*
D32*
X278410000Y-144120000D03*
X278410000Y-144620000D03*
X278410000Y-145120000D03*
X278410000Y-145620000D03*
X278410000Y-146120000D03*
X281510000Y-146120000D03*
X281510000Y-145620000D03*
X281510000Y-145120000D03*
X281510000Y-144620000D03*
X281510000Y-144120000D03*
D33*
X280347500Y-145740000D03*
X280347500Y-144500000D03*
X279572500Y-145740000D03*
X279572500Y-144500000D03*
D17*
X271850000Y-141970000D03*
X271850000Y-143270000D03*
X271850000Y-142620000D03*
X273750000Y-143270000D03*
X273750000Y-141970000D03*
D14*
X269865000Y-147105000D03*
X270365000Y-147105000D03*
X270865000Y-147105000D03*
X271365000Y-147105000D03*
X271365000Y-145255000D03*
X270865000Y-145255000D03*
X270365000Y-145255000D03*
X269865000Y-145255000D03*
D34*
X271165000Y-146180000D03*
X270065000Y-146180000D03*
D11*
X297120000Y-132580000D03*
D12*
X299660000Y-132580000D03*
X302200000Y-132580000D03*
X304740000Y-132580000D03*
X307280000Y-132580000D03*
X309820000Y-132580000D03*
X312360000Y-132580000D03*
X314900000Y-132580000D03*
D14*
X292160000Y-128820000D03*
X291660000Y-128820000D03*
X291160000Y-128820000D03*
X290660000Y-128820000D03*
X290160000Y-128820000D03*
X289660000Y-128820000D03*
X289160000Y-128820000D03*
X288660000Y-128820000D03*
D15*
X288010000Y-129470000D03*
X288010000Y-129970000D03*
X288010000Y-130470000D03*
X288010000Y-130970000D03*
X288010000Y-131470000D03*
X288010000Y-131970000D03*
X288010000Y-132470000D03*
X288010000Y-132970000D03*
D14*
X288660000Y-133620000D03*
X289160000Y-133620000D03*
X289660000Y-133620000D03*
X290160000Y-133620000D03*
X290660000Y-133620000D03*
X291160000Y-133620000D03*
X291660000Y-133620000D03*
X292160000Y-133620000D03*
D15*
X292810000Y-132970000D03*
X292810000Y-132470000D03*
X292810000Y-131970000D03*
X292810000Y-131470000D03*
X292810000Y-130970000D03*
X292810000Y-130470000D03*
X292810000Y-129970000D03*
X292810000Y-129470000D03*
D16*
X289547500Y-132082500D03*
X291272500Y-132082500D03*
X289547500Y-130357500D03*
X291272500Y-130357500D03*
D35*
X281810000Y-141965000D03*
X282310000Y-141965000D03*
X282810000Y-141965000D03*
X283310000Y-141965000D03*
D36*
X284035000Y-141240000D03*
X284035000Y-140740000D03*
X284035000Y-140240000D03*
X284035000Y-139740000D03*
D35*
X283310000Y-139015000D03*
X282810000Y-139015000D03*
X282310000Y-139015000D03*
X281810000Y-139015000D03*
D36*
X281085000Y-139740000D03*
X281085000Y-140240000D03*
X281085000Y-140740000D03*
X281085000Y-141240000D03*
D37*
X283010000Y-140040000D03*
X282110000Y-140040000D03*
X283010000Y-140940000D03*
X282110000Y-140940000D03*
M02*
